<?xml version="1.0" encoding="UTF-8"?> <!-- Generator: Adobe Illustrator 24.1.0, SVG Export Plug-In . SVG Version: 6.00 Build 0) --> <svg xmlns="http://www.w3.org/2000/svg" xmlns:xlink="http://www.w3.org/1999/xlink" id="a709ca12-5d3b-44eb-b3b3-125f4bba807a" x="0px" y="0px" viewBox="0 0 700 500" style="enable-background:new 0 0 700 500;" xml:space="preserve"> <style type="text/css"> .st0{fill:none;stroke:#000000;stroke-width:3;stroke-linecap:round;stroke-miterlimit:10;} .st1{fill:#FFFFFF;stroke:#000000;stroke-width:4;stroke-linejoin:round;} .st2{fill:#FFFFFF;stroke:#000000;stroke-width:4;stroke-linecap:round;stroke-linejoin:round;} .st3{fill:none;stroke:#000000;stroke-width:3;stroke-miterlimit:10;} .st4{fill:none;stroke:#000000;stroke-width:3;stroke-linecap:round;stroke-linejoin:round;} .st5{clip-path:url(#SVGID_6_);} .st6{fill:none;stroke:#000000;stroke-width:2.5;stroke-linecap:round;stroke-linejoin:round;} .st7{stroke:#000000;stroke-width:0.5;stroke-linecap:round;stroke-linejoin:round;} .st8{fill:none;stroke:#000000;stroke-width:2.8682;stroke-linecap:round;stroke-linejoin:round;} .st9{fill:none;stroke:#000000;stroke-width:2;stroke-linejoin:round;} </style> <symbol id="b3988eb7-ad7c-457f-8ab4-ee6b46866edb" viewBox="-7 -5.5 14 11"> <line class="st0" x1="0" y1="4" x2="0" y2="-3.5"></line> <line class="st0" x1="-5.5" y1="-4" x2="5.5" y2="-4"></line> </symbol> <symbol id="bab7c27a-51ab-49b1-8dd3-d02da68388b2" viewBox="-99.4 -149 198.8 298"> <polygon class="st1" points="96.8,-106 51.8,-147 51.8,-106 "></polygon> <path class="st2" d="M-97.4,139l8.3,8l8.1-8l8.1,8l8.1-8l8.1,8l8.1-8l8.1,8l8.1-8l8.1,8l8.1-8l8.1,8l8.1-8l8.1,8l8.1-8l8.1,8l8.1-8 l8.1,8l8.1-8l8.1,8l8.1-8l8.1,8l8.1-8l8.1,8l8.3-8v-245H51.7v-41H-91.4c-3.3,0-6,2.7-6,6V139z"></path> <rect x="-72.2" y="-34.5" width="111" height="4"></rect> <rect x="-72.2" y="86" width="58" height="4"></rect> <rect x="-72.2" y="39" width="111" height="4"></rect> <rect x="-72.2" y="76" width="78" height="4"></rect> <rect x="10.8" y="76" width="65" height="4"></rect> <rect x="-72.2" y="103" width="78" height="4"></rect> <rect x="10.8" y="103" width="65" height="4"></rect> <rect x="-72.2" y="-24" width="124" height="4"></rect> <rect x="-72.2" y="20" width="64" height="4"></rect> <rect x="-72.2" y="67" width="64" height="4"></rect> <rect x="-28.2" y="30" width="64" height="4"></rect> <rect x="-4.2" y="20" width="18" height="4"></rect> <rect x="-72.2" y="112" width="64" height="4"></rect> <rect x="-4.2" y="112" width="18" height="4"></rect> <rect x="39.8" y="30" width="36" height="4"></rect> <rect x="17.8" y="20" width="58" height="4"></rect> <rect x="-72.2" y="30" width="40" height="4"></rect> <rect x="-28.2" y="58" width="64" height="4"></rect> <rect x="39.8" y="58" width="36" height="4"></rect> <rect x="-4.2" y="67" width="36" height="4"></rect> <rect x="36.8" y="67" width="39" height="4"></rect> <rect x="-72.2" y="58" width="40" height="4"></rect> </symbol> <g> <defs> <rect id="SVGID_1_" x="97" y="26" width="171.1" height="257.2"></rect> </defs> <clipPath id="SVGID_2_"> <use xlink:href="#SVGID_1_" style="overflow:visible;"></use> </clipPath> <g style="clip-path:url(#SVGID_2_);"> <use xlink:href="#bab7c27a-51ab-49b1-8dd3-d02da68388b2" width="198.8" height="298" x="-99.4" y="-149" transform="matrix(0.863 0 0 0.863 182.7595 154.587)" style="overflow:visible;"></use> </g> </g> <path class="st3" d="M128.5,54.6c-0.9,0-1.8,0.4-2.4,1c-0.7,0.7-1,1.7-0.8,2.6c0.2,2.1,0.6,4.7,1.1,7.3c0.5,2.5,1.2,5,2.1,7.4 c0.3,0.7,0.6,1.4,1,2c0.3,0.6,0.7,1.1,1.1,1.6c3.1,3.8,6.6,7.2,10.5,10.1c4.1,3,8.8,5.4,13.5,5.7s9.4-1.2,13.6-3.4 c3.8-2,7.3-4.5,10.5-7.3s5.5-6.5,6.5-10.7c0.8-3.7,1.2-7.4,1.3-11.1c0.1-1-0.2-1.9-0.9-2.6c-0.6-0.6-1.5-1-2.4-1 c-6.8-0.4-10.3-2.5-13.9-4.5s-7-4-13.7-4.3c-3.9-0.2-7.1,1.3-11.2,3C139.3,52.8,134,54.2,128.5,54.6z"></path> <path class="st3" d="M128.5,73.3c-4.5-2-8.7-4.6-12.6-7.7c-5.6-4.7-9.9-11.2-4.4-18.2c2.4-3.1,5.9-1.3,8.8,1.2 c1.9,1.7,3.7,3.7,5.2,5.8"></path> <path class="st3" d="M183.5,56.5c3.4-3.2,7-6,11-8.5c5.7-3.3,11.7-4.8,13,2.5c2,10.5-4.3,17.3-11.1,21.5c-4.4,2.6-9.1,4.6-14.1,5.7"></path> <path class="st4" d="M140.5,61.8c0,0,1-0.1,2.2-0.3c1.3-0.2,2.5-0.5,3.7-1c1.4-0.7,2.9-1.7,4.6-2.5c1.7-0.9,3.5-1.4,5.4-1.5 c2,0,4.2,1.5,6.7,3.1s5.1,3.2,7.9,3.5"></path> <g> <defs> <rect id="SVGID_3_" x="170.8" y="50" width="198.3" height="298"></rect> </defs> <clipPath id="SVGID_4_"> <use xlink:href="#SVGID_3_" style="overflow:visible;"></use> </clipPath> <g style="clip-path:url(#SVGID_4_);enable-background:new ;"> <use xlink:href="#bab7c27a-51ab-49b1-8dd3-d02da68388b2" width="198.8" height="298" id="XMLID_1_" x="-99.4" y="-149" transform="matrix(1 0 0 1 270.1998 199)" style="overflow:visible;"></use> </g> </g> <g> <g> <defs> <polygon id="SVGID_5_" points="367,159 173,159 173,53 322,53 322,93 367,93 "></polygon> </defs> <clipPath id="SVGID_6_"> <use xlink:href="#SVGID_5_" style="overflow:visible;"></use> </clipPath> <g class="st5"> <g id="a86960fd-369a-4507-b5b5-2a5b59c71e11"> <path class="st6" d="M223.8,144.8c-0.8-0.2-0.8-0.9-0.3-1.1c0.5,0.1,1.7,1.1,2.3,1.2C225.1,144.9,224.5,144.9,223.8,144.8z"></path> <path class="st6" d="M222.5,143.7c-1.5,0-1.7-2-2.7-3c-0.8-0.4,0.8-0.7,0-1.6c-2-3.5-1.5-7.1-1.7-11.6c0.3-2.8-4-3.7-4.7-6.7 c-0.3-1.6-2.1-1.9-1.2-3.3c0.6-1-1.1-0.6,0.8-2.8c1.3-1,0.8-5.1-0.7-3.5c-0.3,0.8-2.5-0.8-2.7-1.5c-0.8-1.8-0.4-1-2-1.5 c-1.1-0.6-1.5-1.9-2.9-1c-1.2-0.8-4.1-1.4-3.8-2.8c0.4-0.9-1-2-1.3-2.7c-0.5-0.5-0.9-3.5-1.8-2.8c-0.6,0.3,2.1,5.4,0.7,3.8 c-0.3-0.3-0.3-0.5-0.3-0.8c0.2-0.5-1.1-0.9-0.7-1.4c-0.3-0.8-0.2-2.7-1.1-3.2c-0.8-0.6-0.6-2-0.7-2.8c0.7-1.6,1.6-3.2,2.8-4.5 c0.1,0,0.2,0.1,0.2,0.1c-0.1,0.7,0.9-0.6,0.7-0.7c0-0.3-1.4-1.4-1-1.7c0.2-0.5-0.1-1.2,0.5-1.4c-0.2-1.8-1.4-2.4-3.3-2.7 c-3-0.5-5.9,1.8-8.6,2.4c-0.1-0.3,4.1-1.6,2.2-1.5c-0.2,0.1-0.4,0.1-0.6,0c-0.8-0.3,0.9-0.5,0.5-1.2c-0.6-0.6,4.7-1.4,2.7-1.6 c-2.1,0.3-0.9-0.9,0.5-0.6c1,0,1.5-0.2,0.7-0.9c2.4-0.9,5.9-1.5,8.4-0.9c2.5,1,5.1-0.1,7.6,0.2c0.4-0.1,2.7,0.4,2.3,0.6 c-0.2,0.2-0.2,0.2,0,0.3c0.7,0.2,1.9-0.4,2,0.7c0.8-1.4,2.9-0.8,4.1-0.5c0.3,0.3,2.5-0.6,1.8-1.1c-0.7-0.2,1.2-0.9,1.2-0.7 c-0.4,1.8,1,0.5,0.6,1.4c-0.8,1.5,3.6-2,2.2,0.2c-0.4,1.1-4.1,0.5-3.5,1.2c0.7,0.5-0.9,0.5-1.3,0.6c-1,0.6-4.6,2.1-3.1,3 c0.4,1,3.5,0.7,2.9,2c-0.3,0.4-0.2,0.9,0.2,1.2c0,0,0.1,0,0.1,0.1c1,0,0.9-1.7,1.9-2c0.9-0.5,1.3-1,1.2-1.5 c0.2-0.8,1.1-2.3,2.2-2c0.8,0.2,1.8,0.5,1.4,1.2c0,2,2.1-0.8,2.2,0c0.2,0.8-0.1,1.1,0.3,1.9c0.3,0.5,0.3,0.5,0,0.6 c-0.8,0.6,3.3-0.3,0.3,1.5c-1.5,1-3.3,0.2-4.9,1.1c-1.1,0.4-1.6,1.1-0.2,0.5c3.4-1.3-0.8,1.5,2.3,1.4c1.1-0.2-1,0.6-1.5,0.8 c-0.8,0.4-1.2,0.1-0.1-0.4c1.5-1.1-3.4,0.7-3.1,1.1c0.1,0.5-1.6,0.7-2.1,1.2c-0.4,0.2-1.4,1.4-1.3,1.2c-0.1-0.4-0.4,0-0.4,0.6 c-0.2,2.1-4.1,1.9-3.3,4.5c0.1,1,0.2,1.4-0.4,1.6c-0.6-0.3-0.2-1.8-0.7-2.3c-0.7-0.3-1.5-0.5-2.3-0.5c-0.6,0.1-0.5,0.8-1,0.6 c-3.4-2.2-6.5,5.9-2.4,5.9c1.4-0.1,1.5-2.2,2.9-1.6c0.7-0.2-2.2,3.6-0.2,3c0.8-0.1,1.5,0,1.6,0.2c-0.1,1.1-0.7,4,1.3,3.4 c0.9-0.6,1.3,0.5,1.9,0.2c0.2-0.5,2.6-2.5,2.5-1.7c-0.2,0.4-0.3,0.9-0.2,1.4c0.1,0.2,0.1,0.2,0.3,0c0.4-0.5-0.4-0.6,0.3-1.1 c0.3-0.3,0.7-0.3,1,0l0.1,0.1c1.5,0.8,3.4,0.2,4.7,2.2c1.1,1.3,3.2,0.1,3.7,2.3c0.8,1-0.5,1.4-0.7,2.3c0.3,0.2,1.4-1.4,1.7-0.7 c0.4,0.2-0.3,0.7-0.5,0.8c-0.1,0.2,0.5,0.3,0.7,0c1.5-1.4,1.7,1,2.2,0.6c1.4-0.6,3.7,0.9,4.6,1.8c0.3,1.2-1,2.4-1.6,3.4 c-0.5,1.2-0.3,4.6-1.4,5.4c-0.8,0.4-3.1,0.5-2.9,1.9c0.2,1.3-0.7,2.5-1.4,3.7c-0.5,1.6-2,0.3-2.5,0.7c2.8,2.6-1,1.8-0.9,2.8 c0.4,1.6-1.6-0.2-1,1c0.1,0.4,0.9,0.4,0.5,0.7c0,0.5-0.8,1.2-0.5,1.7c0.4,0.5,1,0.6,0.5,1.5 C222.7,142.7,223.8,143.7,222.5,143.7z"></path> <path class="st6" d="M213.8,92.5c0.1-0.8,2.1-1.8,1.4-0.7c-0.5,0.3,0.1,0.8,0.5,0.6c0.5-0.6,0.5-0.4,1.1-0.7 c0.2-0.4-0.4-1-0.8-0.7c-1.3,0.3,0.2-2.8-3.5-0.6c-0.7,0.3,0.4,0.5,0.7,0.3c0.5-0.3,1.3,0.2,1.8,0.2 C212.9,91,211.9,95.2,213.8,92.5z"></path> <path class="st6" d="M215.9,93.2c0.8-0.3,0.2-0.7-0.4-0.3C214.4,93.5,215.3,93.7,215.9,93.2L215.9,93.2z"></path> <path class="st6" d="M218,92.4c0.7-0.6-1-0.3-0.9,0C217.1,92.6,217.7,92.6,218,92.4L218,92.4z"></path> <path class="st6" d="M226.9,143.3c0.5-0.9-0.4,0.4-0.5-0.3c0.2-0.2-0.1-0.3,0.8-0.2c0.5,0,0.6,0.1,0.3,0.4 C227.1,143.5,226.9,143.5,226.9,143.3L226.9,143.3z"></path> <path class="st6" d="M325.5,140.4c-0.6-0.2,4.2-2.7,4.7-2.7C330.5,138.4,326.1,141,325.5,140.4L325.5,140.4z"></path> <path class="st6" d="M317.2,138.8c-0.1-1.6,0.2-1.2,1.6-1.1C319.1,137.8,317.4,139.3,317.2,138.8L317.2,138.8z"></path> <path class="st6" d="M330.9,137.8c0.7-0.5,0-1.2,1-1.6c0.7,0.1,0.1-2,0.5-1.8c0.2,0.3,0.1,1.8,0.9,1.5c0.2-0.1,0.2-0.1,0.2,0.1 C333.1,136.5,331.4,137.9,330.9,137.8L330.9,137.8z"></path> <path class="st6" d="M318.4,136.3c-0.4-0.4-2.2,0.4-2-0.9c0.2-0.2-0.1-1.8-0.5-1.1c-0.3,0.4-0.2-0.1,0.1-0.4 c0.5-0.6,0.3-0.7-0.4-0.3c-1.2,1.2-1-1.6-2.8-1c-1.9-0.2-6.6,2.8-7.2,1c0.5-0.5,0.7-1.2,0.5-1.8c-0.2-3-0.2-4.8,3.3-5.4 c1.2,0.1,3.3-4,4.4-3.1c1.2,1.2,0.8-1,2.5-1.2c3.8-0.5-0.8,1.5,3.4,3c1-0.4,1-3,1.6-3.5c0.3,1.1,1.5,2.2,1.2,3.4 c0.1,1,1.4,2.4,1.9,3.5c1.5,2.3-1.6,4.7-2.8,6.1c-0.6,0.8-1.5,1.3-2.5,1.6C318.8,136.5,318.6,136.7,318.4,136.3L318.4,136.3z"></path> <path class="st6" d="M260.8,133.8c-0.4-1-0.3-1.9-1.2-2.9c-0.8-1.9-1.1-4.4-2.1-6.1c-0.4-0.9,1.3-2.6,0.8-3.7 c0.3-2.2-2.3-3.7-2-5.6c0.7-3.4-1.2-1.5-2.4-3.3c-0.9-0.5-1.3,0.1-2.4,0.4c-1.3,0.2-2.6,0.4-3.9,0.4c-1.8-0.4-2.4-3-3.6-3.8 c-0.2-0.1-0.2-0.1-0.1-0.2c0.2-0.1-0.7-0.4-0.1-0.5c0.4,0.2-0.6-1-0.2-1.3c1.3-1.2-0.5-2.8,0.6-4.1c0.7-1.7,2.3-2.7,3.2-3.9 c0-0.7,0.4-1.3,1-1.6c1.1-0.8,0.8-1.4,2.2-0.8c1.3,0,2.5-1.3,4-0.9c0.9,0.3,2.3-0.8,2.4,0.1c0.1,0.7-0.1,1.7,0.9,1.9 c1.6,0.2,3.4,2.9,3.7,0.3c0.8-0.7,3.7,1.3,4.7,0.7c2.5,0.5,2.3-0.9,2.5-2.8c-0.1-0.3-0.4-0.3-1.1,0c-0.5,0.4-1.3-0.6-1.6-0.1 c-0.9,0.5-1.8-1.3-1.8-1.8c0.9-0.2,1.7-0.5,2.5-0.9c0.9-0.7,3.4,1.3,4,0.1c0.4-0.6-0.4-0.9-1.1-1.3c-2.1-0.6,1-2.6-1.6-1.5 c-0.8,0.3-0.6,0.5-0.1,0.6c0.4,0.3-1.5,0.7-1.1-0.1c-0.3-1.9-3.3,1.5-1.7,2.4c-1,0.2-2,0.1-2.7,0.5c-0.3,0.2,0.6,1.2,0.2,1.5 c-0.1,0.8-1.2-0.5-0.6-0.5c0.7-0.4-1.5-0.5-1.1-1.4c-0.3-1.1-2.3-2-3.2-2.5c-1.3,0.6,3.4,2.9,2.4,2.8c-1-0.2,0,0.8-0.9,1.2 c0.5-1.7-1.9-1.5-2.5-3c-0.5-1.1-1.6,0.5-2.3,0.1c-1-0.2-0.8,0.4-1,0.8c-1.4,0.4-1.2,1.9-2.4,2.6c-0.3,0.2-1.2,0-1.3,0.4 c-0.1,0.2-0.1,0.2-0.4-0.1c-0.8-0.7-1.7-0.2-1.1-2.1c-0.4-3.5,4.4,0.4,3.5-3.2c-1.3-1.4-1.5-0.7,0.5-1.4c0.9-0.1,1.4-1,2.3-1.5 c0.4-0.7,2.1-0.5,1.8-1.2c-0.3-0.4-0.2-1,0.2-1.3c0.1-0.1,0.2-0.1,0.3-0.2c-0.1,0.7-0.3,1.2,0.5,0.8c0.6-0.4,0.3,0.7,0,0.4 c-0.2-0.2-0.3,0.3-0.4,0c-0.3-0.3-0.2,0.1,0.1,0.3c0.3,0.6,0.9-0.1,1.4,0.2c0.3,0.4,1.5-0.5,1.9-0.2c2.1,0.1,0-1.8,2.3-1.5 c0.2-0.2,0.1-0.2-0.1-0.5c-1-0.9,2.3-0.1,2-0.9c-0.6-0.5-4.1,0.6-2.8-1.4c1-1.2,0.5-2-0.5-0.8c-3.6,2.7,0.7,1.1-1.7,3.6 c-1,2-1.6,0.1-2.3-0.9c-0.4,0.5-1.1,0.6-1.6,0.3c-0.3-0.2-0.5-0.7-0.4-1.1c0.5-1.1,2.8-1.6,3.5-2.9c2.4-2.7,6.9-1.2,9.6,0 c0.1,1.1-3.7-0.5-2.8,0.4c0.5,0.4,1.1,1.5,1.9,1.2c0.4-0.1,0.4-0.2,0-0.4c-0.8-0.5,1.3,0.4,1-0.4c0-0.1,0.1-0.2,0.4-0.3 c1.6-0.1,0-1,0.9-0.9c1.4,1.2,1.3-0.5,4.2-0.1c0.8-0.1,1.7-0.1,0.8-0.5c-0.2,0.1-0.7-0.1-0.6-0.2c1.2,0.1,2.4,0.4,3.6,0.8 c1.7,0-2.2-1.5-0.1-1.9c0.5-0.5,2.7,2.3,1.9,2.4c-0.5,1.3,2-0.6,0.4-1.1c-0.3-0.1-0.5-0.4-0.6-0.8c0.6-0.2,0.9,0.1,2-0.8 c0.2-0.4,2-0.1,1.6-0.6c-0.5-0.6,2-0.5,2.5-0.6c0.5,0.1,1.1-0.2,1.3-0.7c-0.2-0.4-1.5,0.3-1.4-0.1c0-0.2-0.1-0.2-0.9-0.3 c-2.3-0.2-2.5-0.2-2.3-0.5c0.4-0.3,0.9-0.2,1.4,0c2.4,0.6,4.8,1.1,7.2,1.5c1.2,0.4-2.4,1.5,0.1,1.1c2.2-0.1,4.5,0,6.7,0.3 c0.6,0.2,1.6,1.2,2.1,0.7c3.7,0.1,1.1-1,3.7-0.7c2.8,0.6,5.6,1,8.4,1.2c1.3-0.3,2.7,0.8,2.5,0c0.8-0.6,4.4,0.7,5.5,0.8 c1.4,0.6,2.2,0.1,3.5,1l0.4,0.3l-0.3,0.1c-0.4,0.2-3.2-1.2-2.8-0.3c0.2,0.2,0.2,0.2-0.2,0.2c-1.7-0.1,1.7,1,1.7,1.1 c0.1,0.3-1.6,0.2-1.5,0.6c-0.2,0.3-0.4,0.7-0.8,0.4c-1-0.2-3,0.6-1.1,1.5c0.7,0.3,1.1,1.1,0.8,1.8c0.7,2.3-0.6,0.9-1.5,0.1 c-2.6-1.8-0.3-2.6-1.2-4.2c-0.9-0.6-0.2,1.1-1.1,0.5c-2-0.9-1,0.4-1.7,1c-1.3-0.1-4.1-0.8-4.5,1c-1.2,2.7,2.1,0.3,3.5,3.3 c0.7,0.2,0.6,4.3-0.9,3.9c-0.5-0.5-0.9,0.8-0.8,1c0.3,0.4-0.4,0.6-0.6,0.9c0.3,0.4,2.2,1.4,2,2.2c-0.1,0.1-0.8,0.4-1,0.5 c-0.4-1.5-1.4-1.8-2.1-2.7c-1.1-0.5-0.9,1-1.7-0.7c-0.3-0.3-1,0.8-1.3,0.9c-0.4,0.3,0.2,0.6,0.6,0.8c0.9,0.4,0.9-0.3,1.9,0.2 c-2.8,1.3,0.8,2.4,0.6,3.5c-0.2,0.7,1-0.2,0.2,1.8c-0.4,3.1-2.9,1.9-4.3,3.6c-0.2-1.2-1.7-0.5-1.9,0.3c0.3,1.5,4,4,0.9,5.3 c-0.6,0.8-0.8,0.5-0.7-0.3c-0.1-0.4-0.5,0.3-0.7-0.2c-1.9-2.3-2.3-1.3-1.9,0.8c0.6,1.3,2.4,2.4,2.4,4c-1.4,0.4-1.6-2.4-2.6-3.3 c-1.1-0.8,0.2-2-0.6-3c-0.8-3.6-1.5-0.1-2-1.9c-0.3-1.3-1.2-2.3-2.3-3c-2,0.3-2.5,2.1-4.1,3.3c-1.1,1.1,0,4.2-1.8,4.1 c-0.6-0.4-0.4-1.1-0.9-1.9c-1.5-3.2-1.7-3.9-1.6-4.4c0.1-0.4-0.1-1-0.3-0.9c-0.3,0.8-0.9,0.8-1.6,0.1c0.3,0,0.8-0.5,0.2-0.5 c-0.5-0.1-0.9-0.4-1.2-0.8c-0.9-1.3-3.9,0.5-5-1c-0.6-0.8-1.2,0.3-2.1-0.5c-1-0.3-1-1.8-2-1.6c-0.4,0.3-0.4,0.8,0,1.3 c1,2.7,1.2,0.5,1.5,1.6c0.6,1.5,2.2-1.1,2.2-0.3c-0.1,0.7,1.8,1.4,1.8,1.8c-1.3,2.4-4.7,4.3-6.9,4.9c-1.2,0.2-0.7-2-1.4-2.5 c-1-1.4-2.9-4.5-3.5-5.6c-0.3-1-0.5-0.5-0.5,0.1c-2.2-2.7,0.8,2.4,1.2,3.1c0.5,2.3,2.7,4.3,3.9,6.1c2,0.6,4.9-2.4,2.5,2.1 c-1.4,3.6-6.6,4.6-4.6,8.8c0.3,0.9,0.4,1.9,0.2,2.8c-0.5,1.2-3.5,1.9-2.7,3.6c1,1.5-1.6,1.4-1.3,2.9c-0.3,1.2-2.2,2.9-3.2,3.5 s-1.2-0.1-2.2,0.2C261.1,134.2,261.2,134.2,260.8,133.8z"></path> <path class="st6" d="M276.4,96.1c1.1-0.4-0.5-1.9-0.2-2.1c0.2,0.1,0.5,0,0.5-0.2c-0.1-1-2.4-0.8-2-2c0.2-0.7,1.5,0.2,1-0.7 c-1-1.4-3.9,0.4-1.9,2c1.2,0.9-0.1,2.3,1.4,2.7C276,96.2,275.8,96.5,276.4,96.1L276.4,96.1z"></path> <path class="st6" d="M325.1,121.4c-1.4-0.1-2.1-2.7-3.1-1.2c-0.6,1-1.6-0.5-2.4-0.3c-0.2-0.1-0.1-0.1,0.1-0.3 c0.6-0.5-0.2-1.1-1-1.5c-0.7-0.5-2.2-0.3-1.6-1.1c0.6-0.2-1.4-0.6-0.6-0.8c1.7-0.8,0.8,2.5,2.6,0.6c0.9-0.7,5.2,1.5,5,2.6 C323.2,119.7,327,122.2,325.1,121.4L325.1,121.4z"></path> <path class="st6" d="M330.2,121.4c-0.3-0.4,0.4,0,0.2,0.1C330.4,121.6,330.3,121.5,330.2,121.4L330.2,121.4z"></path> <path class="st6" d="M310.4,120.9c-0.6-0.4,0.5,0,0.4,0.1C310.7,121.1,310.5,121,310.4,120.9L310.4,120.9z"></path> <path class="st6" d="M312.4,120.8c0.2-0.7,1.9-0.6,1.4-0.4C313.5,120.3,311.7,121.7,312.4,120.8L312.4,120.8z"></path> <path class="st6" d="M329.5,120.9c-0.3-0.3,0.3-0.1,0.4,0.1C329.8,121.2,329.6,121.1,329.5,120.9L329.5,120.9z"></path> <path class="st6" d="M330,120.8c-0.1-0.1-0.1-0.8,0-0.3C330.2,120.7,330.2,121.2,330,120.8L330,120.8z"></path> <path class="st6" d="M309,120.5c-0.4-0.3,0.8-0.3,0.9-0.2C309.8,120.5,309.1,120.5,309,120.5L309,120.5z"></path> <path class="st6" d="M310.7,120.4c-0.2-0.3,0-0.3,0.6-0.2C312.4,120.4,310.9,120.6,310.7,120.4L310.7,120.4z"></path> <path class="st6" d="M328.5,120.3c-0.3-0.6,0.4,0.1,0.2,0.2C328.6,120.5,328.5,120.4,328.5,120.3L328.5,120.3z"></path> <path class="st6" d="M329.2,120.2c-0.6-0.7,0.5,0.1,0.3,0.2C329.4,120.4,329.3,120.3,329.2,120.2L329.2,120.2z"></path> <path class="st6" d="M307,120.2c-1.1-0.4-2.7-0.2-3.5-0.8C303.6,118.3,310.9,120.7,307,120.2L307,120.2z"></path> <path class="st6" d="M328.2,119.6c-0.3-0.4,0.1-0.2,0.2,0C328.8,120,328.4,119.8,328.2,119.6L328.2,119.6z"></path> <path class="st6" d="M327.5,119.4c-0.1,0-0.4-1.1-0.1-0.6C327.5,119,328.1,119.8,327.5,119.4L327.5,119.4z"></path> <path class="st6" d="M325,119.1l-0.3-0.2c0.5,0.1,1.4-0.7,1.7-0.7C326.5,118.5,325.4,119.5,325,119.1L325,119.1z"></path> <path class="st6" d="M302.8,118.6c-1.6-1.8-2.9-3.8-4.2-5.9C300.1,113,305.7,118.5,302.8,118.6L302.8,118.6z"></path> <path class="st6" d="M310.3,118.5c-0.1-0.9-0.2-3.8,1.5-3.4c0.3,0.1,0.7,0.1,1-0.1c1-0.6-0.1,1-0.6,0.4 c-0.7-0.4-1.7,0.2-1.2,0.7c0.1,0.4,1.8-0.3,1.1,0.2c-1,0.2,0.5,1.8-0.3,1.7c-0.3,0-0.5-1.3-0.8-0.8 C310.4,117.5,311.2,119,310.3,118.5L310.3,118.5z"></path> <path class="st6" d="M326.5,117.9c-0.1-0.3-0.8-0.6-0.9-0.7C325.9,116.8,327.3,118.6,326.5,117.9L326.5,117.9z"></path> <path class="st6" d="M308,117.5c-1.6-0.2-2.4-0.1-2.6-2c-0.2-1,0.7-0.3,0.9-0.8c0.7-0.5,2.7-3.2,3.4-2.1c0.9,0.7-1,1.2,0.4,2.5 C309,115.3,309.1,118,308,117.5L308,117.5z"></path> <path class="st6" d="M314.8,117.5c-0.9-0.4,1.2-0.2,0.7,0C315.3,117.6,315,117.6,314.8,117.5L314.8,117.5z"></path> <path class="st6" d="M314.4,115.7c-0.1-0.3-0.1-1.2,0.4-1.3c0.2,0,0.2,0,0,0.2C314.4,114.9,315.1,116.2,314.4,115.7L314.4,115.7 z"></path> <path class="st6" d="M255.1,115.3l0.1-0.1C255.5,115.1,255.2,115.5,255.1,115.3z"></path> <path class="st6" d="M255.8,113.9l0.1-0.1C256.2,113.7,255.9,114.1,255.8,113.9L255.8,113.9z"></path> <path class="st6" d="M312.6,112.1c-0.2-0.5-0.3-0.5-0.6-0.5c-0.3,0.1-0.4,0.1-0.2-0.2c0.3-0.4,1.4-0.1,1.4-0.9 c-0.1-0.6,1,1.9,0.4,1.5c-0.6-0.3-0.2,0.3-0.3,0.5C313,112.6,312.9,112.7,312.6,112.1L312.6,112.1z"></path> <path class="st6" d="M291.1,112.3c-0.2-0.5-0.2-1-0.1-1.4C291.4,110.3,292.4,112.8,291.1,112.3L291.1,112.3z"></path> <path class="st6" d="M309.2,111c-0.1,0,1.1-1.5,1.1-1C310.3,110.2,309.2,111.5,309.2,111L309.2,111z"></path> <path class="st6" d="M311.7,110.7c-0.1-0.2,0-0.7,0.3-0.4C312.2,110.4,311.8,111.1,311.7,110.7L311.7,110.7z"></path> <path class="st6" d="M221.3,110.2c0-0.3,0.4-0.5,0.4-0.1C221.7,110.4,221.1,110.5,221.3,110.2L221.3,110.2z"></path> <path class="st6" d="M312.5,110.2c0-0.2-0.2-0.4-0.1-0.4C312.7,109.8,312.8,110.7,312.5,110.2L312.5,110.2z"></path> <path class="st6" d="M311.3,109.9c-0.1-0.1-0.1-0.3,0-0.4c0.1-0.1,0.1-0.1,0.2-0.1C311.9,109.4,311.5,110.2,311.3,109.9 L311.3,109.9z"></path> <path class="st6" d="M312.7,109.5c-0.5-0.6,0.1-0.4,0.4,0S313.1,109.9,312.7,109.5L312.7,109.5z"></path> <path class="st6" d="M310.8,109c-0.1-0.1-0.2-0.2-0.2-0.3C310.7,108.5,311.4,109.5,310.8,109L310.8,109z"></path> <path class="st6" d="M218.1,109c0-0.1-0.1-0.1-0.1-0.2C218.1,108.6,218.4,109.2,218.1,109L218.1,109z"></path> <path class="st6" d="M217.4,108.8c0-0.3,0.3,0.1,0.1,0.1C217.5,109,217.4,108.9,217.4,108.8L217.4,108.8z"></path> <path class="st6" d="M312,108.6c-3.3,0.1-1.1-5.2-1-1.4C310.2,108.1,313.1,108.4,312,108.6L312,108.6z"></path> <path class="st6" d="M213.8,105.9c-0.5-0.3,0.3-0.4,0.6-0.1C214.9,106.1,213.9,106,213.8,105.9L213.8,105.9z"></path> <path class="st6" d="M304.5,105.7c-0.7-0.4,1.2-1.2,0.6-0.3C304.8,105.9,304.7,105.9,304.5,105.7L304.5,105.7z"></path> <path class="st6" d="M309.8,103.7c-0.7-0.2,0-1.9,0.3-1.2C310.3,102.9,310,103.8,309.8,103.7L309.8,103.7z"></path> <path class="st6" d="M214.2,102.4c-0.2-0.2-0.2-0.5,0-0.5C214.3,102,214.6,102.9,214.2,102.4L214.2,102.4z"></path> <path class="st6" d="M214.9,101.4c0-0.1,0-0.2,0-0.3C215.1,101.1,215.1,101.9,214.9,101.4L214.9,101.4z"></path> <path class="st6" d="M214.2,101.3c0-0.2,0.6-0.3,0.3,0C214.2,101.5,214.2,101.6,214.2,101.3L214.2,101.3z"></path> <path class="st6" d="M313.2,98.8c0-0.3-1-1.4-0.1-1C313.6,97.9,313.6,99.3,313.2,98.8L313.2,98.8z"></path> <path class="st6" d="M313.8,97.9c-0.1-0.2,0.1-0.4,0.4-0.4C314.7,97.5,314,98.5,313.8,97.9L313.8,97.9z"></path> <path class="st6" d="M314.9,97.5c-0.1-0.7-1.8,0.2-2-0.3c0.8-0.6,3.7-1.1,2.7-2.6c-0.7-2.7,2.9,2.8,0.1,2.5 C315.1,96.8,315.3,98.3,314.9,97.5L314.9,97.5z"></path> <path class="st6" d="M267.1,97.1c-0.3-0.3,0.4-0.2,0.5-0.4C268.2,96.3,267.3,97.3,267.1,97.1L267.1,97.1z"></path> <path class="st6" d="M263.1,96.9c-1.1-0.3,1.4-0.2,1.1,0.1C264,97.1,263.5,97,263.1,96.9L263.1,96.9z"></path> <path class="st6" d="M258.3,95.7c-1.2-0.5,0.7-0.4,0.7-0.2C258.9,95.8,258.9,96,258.3,95.7L258.3,95.7z"></path> <path class="st6" d="M255.9,94.4c-0.3-0.6,0.5-1,0.5-0.2C256.4,94.8,256.1,94.9,255.9,94.4L255.9,94.4z"></path> <path class="st6" d="M253.2,94.5c0.1-0.2,0.4-0.3,0.4,0C253.5,94.6,253,94.8,253.2,94.5L253.2,94.5z"></path> <path class="st6" d="M314.9,93.2c-0.5-0.5,0.3-0.6-0.1-1.2c-0.3-0.5-0.2-0.5,0.2-0.2c0.2,0.3,2.2,0.7,1.5,1 c-0.3,0.7-1.4-0.1-1.3,0.5C315.2,93.6,315.1,93.6,314.9,93.2L314.9,93.2z"></path> <path class="st6" d="M256.1,93.3c-0.1-0.1-0.1-0.3,0-0.4c0,0,0.1,0,0.1-0.1C256.5,92.7,256.4,93.7,256.1,93.3L256.1,93.3z"></path> <path class="st6" d="M314.1,90.8c-0.3-0.8-2-2.7-2.3-3.4c0.3,0.2,2.5,2,2.2,2.2c-0.4-0.1-0.3,0.2,0.2,0.8 C314.9,90.9,314.9,91.3,314.1,90.8L314.1,90.8z"></path> <path class="st6" d="M227.7,90.6c0-0.1,0.1-0.2,0.1-0.2C228,90.5,227.7,91.1,227.7,90.6L227.7,90.6z"></path> <path class="st6" d="M227.1,90.2c-1.2,0.2,1.4-1.7,1.3-1.7C227.8,89.7,231.5,90.3,227.1,90.2L227.1,90.2z"></path> <path class="st6" d="M198.3,89.4c-1-0.9,0.4-0.8,0.7-0.1C199.4,90,198.6,89.7,198.3,89.4L198.3,89.4z"></path> <path class="st6" d="M250.3,88.8c2.1-0.8-0.8-0.2,0.6-1.4c0.7-0.1,0.2-0.9,0-1c-0.3,0-0.5,0-0.4-0.2c-0.1-0.4-0.1-1.2,0.5-1.3 c0.2,0.7,1,0,0.1,0.9c0.8-0.1,1,1.5,1.7,1.7c0.9-0.1-0.4,0.5-0.1,0.7C252.8,88.6,249.9,88.9,250.3,88.8L250.3,88.8z"></path> <path class="st6" d="M248.3,88.1c-0.1-0.2,0.3-0.8,0.2-0.9c-0.2-0.1-0.1-0.3,0.2-0.4c0.4-0.2,1-0.6,1.4-0.3 C250,87.3,249.2,88.5,248.3,88.1L248.3,88.1z"></path> <path class="st6" d="M250.5,86.9l0.1-0.1C250.9,86.7,250.6,87.2,250.5,86.9L250.5,86.9z"></path> <path class="st6" d="M198.1,86.4c-0.1-0.1-0.1-0.2,0-0.3C198.6,85.6,198.3,86.8,198.1,86.4L198.1,86.4z"></path> <path class="st6" d="M197.9,85.5c0-0.1,0-0.2,0.1-0.3C198.3,84.9,198.1,85.7,197.9,85.5L197.9,85.5z"></path> <path class="st6" d="M190.3,85.4c-0.1-0.1,1-0.5,1.1-0.3C191,85.3,190.7,85.4,190.3,85.4L190.3,85.4z"></path> <path class="st6" d="M260.4,84.1c-0.4-0.2,0.3-0.4,0.3-0.1C260.7,84.2,260.7,84.2,260.4,84.1L260.4,84.1z"></path> <path class="st6" d="M234.5,83.5c-0.9-0.5-1.3-1.7-0.8-2.7c0.1-0.3,0.4-0.5,0.6-0.7c1.2-0.6,0.7-1.4,0.2-2 c0.1-2.3-3.4-1.1-3.7-2.1c2.6-0.8,3.5-1.6,7.5-1.5c3.5-0.3,8-0.8,10.9,0.2c-2.2,0.4-1.9,0.9-2.8,2.3c-0.4,1-3.5,0.4-1.2,1.6 c0.2,0.2,0.5,0.2,0,0.3c-0.2,0.3-1.8-1-1.4-0.2c0.1,0.3-0.9,0.5,0.2,0.5c2,0.1-1.7,0.8-2,0.7c-1.7,0.7-4.2,1.1-5.4,2.7 C235.6,83.9,235.5,84.1,234.5,83.5L234.5,83.5z"></path> <path class="st6" d="M226.1,82.7c-0.8-0.4-0.7-1.3-1.8-0.9c-1,0.2-0.8-0.5,0.4-0.3c1,0.3,0.8-0.8,1.7-0.5 c0.5,0.2,1.3-0.2,0.4-0.5c-0.2-0.2-0.7-1.2-1.1-1.3c-0.9-0.3-2.9,0.4-3.7-0.3c-0.2-0.4,2.7-1.8,1.7-0.9c-0.9,1.4,1.4-1,2,0.1 c1.4,0.8,0.6-0.3,2.3,0.9c0.9,0.1,0.3,0.8,0.8,1.2c0.8,0.6,0.8,0.5,0.6,0.8c-0.3,0.8-1.2-0.2-1.6,0c-0.4,0.1,0.6,1.7-0.5,1.2 c-1.3-0.5-0.5,0.2-0.2,0.5C227.2,83.1,226.6,83,226.1,82.7L226.1,82.7z"></path> <path class="st6" d="M221.7,82.2c-0.2-0.3-1.8,0.4-1.2-0.3C220.9,80.8,223,82.4,221.7,82.2L221.7,82.2z"></path> <path class="st6" d="M245.1,82.2c-2-0.5,1.6-1.3,2.3-0.9C248.2,81.6,246,82.6,245.1,82.2L245.1,82.2z"></path> <path class="st6" d="M213.1,79.9c-0.5-0.1-1-0.3-1.5-0.6c0.3,0,1.6-0.1,1.6-0.2c0.2-0.1-1.7-0.2-1.1-0.3 c1.1-0.3-0.8-0.3,0.2-0.6c1.1-0.6,2.5,0.1,3.3-0.2c0,0.4,0.1,0.7,0.6,0.2c0.6-0.5,1-0.4,0.5,0.3c-0.5,0.5,0.2,0.5,0.5,0.8 c-0.6,0.3-1.2,0.7-1.8,0.4C214.6,79.4,213.9,80.2,213.1,79.9L213.1,79.9z"></path> <path class="st6" d="M217.8,79.9c-0.4-0.5,1.8-0.5,0.7-0.1C218,80.1,218,80.1,217.8,79.9L217.8,79.9z"></path> <path class="st6" d="M272,79c-1.1-0.2,0.2-1.5,0.8-1.9c0.5-0.3,4.9-0.6,1.9,0c-1.2,0.1-2.9,1.3-1.6,2 C272.8,79.2,272.4,79.1,272,79L272,79z"></path> <path class="st6" d="M210.2,78.6c0-1,2.9-1.6,3.9-0.9C212.9,77.7,211.5,78.8,210.2,78.6L210.2,78.6z"></path> <path class="st6" d="M218.7,78.5c0-0.1-0.5-0.4-0.6-0.5c0.9,0.3,1.2-0.4,2.1-0.5C220.4,78.1,218.7,79,218.7,78.5L218.7,78.5z"></path> <path class="st6" d="M220.6,78.2c-0.3-0.7,3-0.7,1-0.1C221.1,78,220.8,78.3,220.6,78.2L220.6,78.2z"></path> <path class="st6" d="M224.3,77.3c-1.2-0.1-2.1,0-1-0.7c1.1,0.2,2.2,0.3,3.3,0.3C227.5,77.2,225.3,77.5,224.3,77.3L224.3,77.3z"></path> <path class="st6" d="M258.3,76.8c-1.1-0.6,0-0.3,0.3-0.6c0.3-0.2-1.8,0.1-1.8-0.5c-0.4-0.3,2.4,0.1,2.2-0.1 c0.1-0.4,0.5,0.2,0.5,0.4c0.2-1,0.5-0.5,1.5-0.5c2,0.2-0.4,0.5-1.1,0.3c0.2,0.2,0.5,0.4,0.8,0.5c0.3,0,0.5,0.6,0.1,0.3 c0.1-0.2-0.9,0.1-0.8-0.1c0.2-0.3-0.6-0.6-0.6-0.4C259.4,76.4,258.8,77.4,258.3,76.8z"></path> <path class="st6" d="M227,76.5c-0.3-0.3-1.5,0-1.9-0.2c-0.7-0.3,2.6-0.1,1.4-0.6c-0.6-0.2,1.4,0.1,0.7-0.4 c-0.8-0.5,2.4-0.1,2.4-0.3c0.9-0.6-2.3-0.1-2.2-0.4c0.5-0.2,5.8-0.5,7.1-0.6c-1.6,1-3.3,1.1-4.8,1.7 C228.7,75.9,227.8,76.8,227,76.5L227,76.5z"></path> <path class="st6" d="M224.7,75.5c-1.4-0.2,1.3-0.9,1.3-0.6C226.4,75.2,225,75.7,224.7,75.5L224.7,75.5z"></path> <g> <path class="st7" d="M223,108.6c0-0.3,0.3,0.1,0.1,0.1C223,108.7,223,108.7,223,108.6L223,108.6z"></path> <path class="st7" d="M273.1,129.1c-1.3-0.8,0.3-2.4,0.1-3.5c-0.3-2,2.1-1.6,2.5-3.4C276.6,123.1,274.7,130.3,273.1,129.1 L273.1,129.1z"></path> <path class="st7" d="M331.3,127.1c-0.6-0.5-0.9-1.9-0.2-0.7C331.5,126.9,332.9,128.6,331.3,127.1L331.3,127.1z"></path> <path class="st7" d="M278.6,126.9c0-0.1,0.1-0.1,0.1-0.1c0.1,0,0.1,0.1,0.1,0.1c0,0.1-0.1,0.1-0.1,0.1 C278.6,127,278.6,127,278.6,126.9L278.6,126.9z"></path> <path class="st7" d="M340.8,126.7c0-0.1,0-0.2,0.1-0.2C341.2,126.2,340.9,126.9,340.8,126.7L340.8,126.7z"></path> <path class="st7" d="M279.4,126.5l0.1-0.1C279.8,126.3,279.5,126.7,279.4,126.5L279.4,126.5z"></path> <path class="st7" d="M337.7,125.3c-0.3-0.6,0.9-0.2,0.4,0C337.9,125.5,337.8,125.5,337.7,125.3L337.7,125.3z"></path> <path class="st7" d="M338.5,124.8c-0.6-0.3,0.9-0.3,0.4,0C338.7,124.8,338.6,124.8,338.5,124.8L338.5,124.8z"></path> <path class="st7" d="M332.9,124.3c-0.5-1.3,0.6,0.5,0.2,0.3C333.1,124.7,333,124.5,332.9,124.3L332.9,124.3z"></path> <path class="st7" d="M333.4,124.3c0-0.1,0-0.2,0.1-0.2C333.5,124.2,333.4,124.6,333.4,124.3L333.4,124.3z"></path> <path class="st7" d="M343,123.1c-0.3-0.3,0.7-0.3,0.3,0C343.1,123.2,343.1,123.2,343,123.1L343,123.1z"></path> <path class="st7" d="M273.2,122.5c-0.1-0.2,0.2-0.1,0.2,0C273.4,122.7,273.3,122.7,273.2,122.5L273.2,122.5z"></path> <path class="st7" d="M339.2,121l0.1-0.1C339.6,120.8,339.3,121.2,339.2,121L339.2,121z"></path> <path class="st7" d="M279.1,118.5c0-0.1,0.1-0.1,0.1-0.1c0.1,0,0.1,0.1,0.1,0.1c0,0.1-0.1,0.1-0.1,0.1 C279.1,118.6,279.1,118.6,279.1,118.5L279.1,118.5z"></path> <path class="st7" d="M333.6,116l0.1-0.1C334,115.8,333.7,116.2,333.6,116L333.6,116z"></path> <path class="st7" d="M337,115c-0.1-0.2,0.2-0.1,0.2,0C337.2,115.2,337.1,115.1,337,115L337,115z"></path> <path class="st7" d="M317.4,111.7c0-0.1,0.1-0.1,0.1-0.2C317.9,111.4,317.5,112,317.4,111.7L317.4,111.7z"></path> <path class="st7" d="M336,111.7c0-0.3,0.3,0.1,0.1,0.1C336,111.8,336,111.7,336,111.7L336,111.7z"></path> <path class="st7" d="M222.3,107.8l0.1-0.1C222.7,107.6,222.4,108.1,222.3,107.8L222.3,107.8z"></path> <path class="st7" d="M240.8,107.4c0-0.1,0.1-0.1,0.1-0.1c0.1,0,0.1,0.1,0.1,0.1c0,0.1-0.1,0.1-0.1,0.1 C240.9,107.5,240.8,107.5,240.8,107.4L240.8,107.4z"></path> <path class="st7" d="M221.9,107c0-0.1,0.1-0.1,0.1-0.2C222.3,106.7,222,107.2,221.9,107L221.9,107z"></path> <path class="st7" d="M220.9,106.5c-0.1-0.2,0.6,0.1,0.2,0.1C221,106.6,220.9,106.5,220.9,106.5L220.9,106.5z"></path> <path class="st7" d="M239.7,106.5c-0.1-0.2,0.2-0.1,0.2,0C239.9,106.7,239.8,106.6,239.7,106.5L239.7,106.5z"></path> <path class="st7" d="M221.4,106.2c-0.1-0.2,0.2-0.1,0.2,0C221.5,106.4,221.5,106.4,221.4,106.2L221.4,106.2z"></path> <path class="st7" d="M221.9,106.2c0-0.3,0.3,0.1,0.1,0.1C222,106.4,221.9,106.3,221.9,106.2L221.9,106.2z"></path> <path class="st7" d="M216.8,105.9c-0.3-0.1-0.8,0.1-1.1-0.1c-0.6-0.3,1.4,0.1,0.8-0.5c-0.1-0.2-0.1-0.2,0.5-0.2 C219,105.2,218.4,106,216.8,105.9L216.8,105.9z"></path> <path class="st7" d="M219,105.9c-0.3-0.2,0.6-0.4,0.6-0.1C219.5,106,219.2,106,219,105.9L219,105.9z"></path> <path class="st7" d="M220,105.7c0-0.1,0.4-0.2,0.4-0.1C220.4,105.8,220,105.8,220,105.7L220,105.7z"></path> <path class="st7" d="M214.9,104.9c0-0.1-1.2,0-0.9-0.2c-0.3-1.2-2.5-1-2.9-0.9C211.4,102.3,217.8,105,214.9,104.9L214.9,104.9z "></path> <path class="st7" d="M215.8,103.9c0.2-0.1,0.4-0.1,0.4,0S215.4,104.1,215.8,103.9L215.8,103.9z"></path> <path class="st7" d="M216.5,103.5c0.1-0.1,0.5-0.1,0.5,0C217.1,103.6,216.5,103.7,216.5,103.5L216.5,103.5z"></path> <path class="st7" d="M221.6,98l0.1-0.1C222,97.8,221.7,98.3,221.6,98L221.6,98z"></path> <path class="st7" d="M250.4,82.8c0-0.1,0.4-0.1,0.4,0C250.7,83,250.4,83,250.4,82.8L250.4,82.8z"></path> <path class="st7" d="M250.4,79.3c0.2-0.1,0.4-0.1,0.4,0C250.8,79.5,250,79.5,250.4,79.3L250.4,79.3z"></path> </g> </g> </g> </g> </g> <g> <defs> <rect id="SVGID_7_" x="421.5" y="98" width="177" height="266"></rect> </defs> <clipPath id="SVGID_8_"> <use xlink:href="#SVGID_7_" style="overflow:visible;"></use> </clipPath> <g transform="matrix(1 0 0 1 3.051758e-05 0)" style="clip-path:url(#SVGID_8_);enable-background:new ;"> <use xlink:href="#bab7c27a-51ab-49b1-8dd3-d02da68388b2" width="198.8" height="298" x="-99.4" y="-149" transform="matrix(0.8926 0 0 0.8926 510.1786 231.0004)" style="overflow:visible;"></use> </g> </g> <path class="st8" d="M472.5,172.7c1.5-1.6,2.9-3.3,4.1-5.1c3.1-4.4,5.8-9.1,7.9-14c2.5-5.9,5-15.3,7.5-23.2s5-14.3,7.5-14.3 s3.5,4.6,4.6,11.5s2.4,16,5.4,25c2,5.9,4.8,11.4,9.5,15.4s11.5,6.5,21.5,6.5"></path> <path class="st4" d="M475.5,174.5c0,0,4.8-0.8,10.8-2.4s13.2-4.1,18.2-7.6c2.9-2,5.6-5.8,8.7-9c3.1-3.2,6.3-5.8,10.3-5.5 c4,0.2,7.5,6.6,13.4,12.9s14.1,12.6,27.6,12.6"></path> <g> <defs> <rect id="SVGID_9_" x="313.8" y="141" width="198.3" height="298"></rect> </defs> <clipPath id="SVGID_10_"> <use xlink:href="#SVGID_9_" style="overflow:visible;"></use> </clipPath> <g style="clip-path:url(#SVGID_10_);enable-background:new ;"> <use xlink:href="#bab7c27a-51ab-49b1-8dd3-d02da68388b2" width="198.8" height="298" x="-99.4" y="-149" transform="matrix(1 0 0 1 413.1998 290)" style="overflow:visible;"></use> </g> </g> <circle class="st3" cx="405" cy="197" r="22"></circle> <g> <defs> <rect id="SVGID_11_" x="398.5" y="165.5" width="14" height="11"></rect> </defs> <clipPath id="SVGID_12_"> <use xlink:href="#SVGID_11_" style="overflow:visible;"></use> </clipPath> <g style="clip-path:url(#SVGID_12_);"> <use xlink:href="#b3988eb7-ad7c-457f-8ab4-ee6b46866edb" width="14" height="11" x="-7" y="-5.5" transform="matrix(1 0 0 1 405.5 171)" style="overflow:visible;"></use> </g> </g> <g> <defs> <rect id="SVGID_13_" x="426" y="191" width="11" height="14"></rect> </defs> <clipPath id="SVGID_14_"> <use xlink:href="#SVGID_13_" style="overflow:visible;"></use> </clipPath> <g style="clip-path:url(#SVGID_14_);enable-background:new ;"> <use xlink:href="#b3988eb7-ad7c-457f-8ab4-ee6b46866edb" width="14" height="11" x="-7" y="-5.5" transform="matrix(6.123234e-17 1 -1 6.123234e-17 431.5 198)" style="overflow:visible;"></use> </g> </g> <g> <defs> <rect id="SVGID_15_" x="398.5" y="218.5" width="14" height="11"></rect> </defs> <clipPath id="SVGID_16_"> <use xlink:href="#SVGID_15_" style="overflow:visible;"></use> </clipPath> <g style="clip-path:url(#SVGID_16_);enable-background:new ;"> <use xlink:href="#b3988eb7-ad7c-457f-8ab4-ee6b46866edb" width="14" height="11" x="-7" y="-5.5" transform="matrix(-1 0 0 -1 405.5 224)" style="overflow:visible;"></use> </g> </g> <g> <defs> <rect id="SVGID_17_" x="372" y="191" width="11" height="14"></rect> </defs> <clipPath id="SVGID_18_"> <use xlink:href="#SVGID_17_" style="overflow:visible;"></use> </clipPath> <g style="clip-path:url(#SVGID_18_);enable-background:new ;"> <use xlink:href="#b3988eb7-ad7c-457f-8ab4-ee6b46866edb" width="14" height="11" x="-7" y="-5.5" transform="matrix(6.123234e-17 -1 1 6.123234e-17 377.5 198)" style="overflow:visible;"></use> </g> </g> <g> <defs> <rect id="SVGID_19_" x="378.5" y="173.5" transform="matrix(0.7071 -0.7071 0.7071 0.7071 -13.6618 325.0175)" width="14" height="11"></rect> </defs> <clipPath id="SVGID_20_"> <use xlink:href="#SVGID_19_" style="overflow:visible;"></use> </clipPath> <g transform="matrix(1 0 0 1 0 0)" style="clip-path:url(#SVGID_20_);enable-background:new ;"> <use xlink:href="#b3988eb7-ad7c-457f-8ab4-ee6b46866edb" width="14" height="11" x="-7" y="-5.5" transform="matrix(0.7071 -0.7071 0.7071 0.7071 385.5 179)" style="overflow:visible;"></use> </g> </g> <g> <defs> <rect id="SVGID_21_" x="418" y="171" transform="matrix(0.7071 -0.7071 0.7071 0.7071 -1.8247 351.5947)" width="11" height="14"></rect> </defs> <clipPath id="SVGID_22_"> <use xlink:href="#SVGID_21_" style="overflow:visible;"></use> </clipPath> <g transform="matrix(1 0 0 1 0 0)" style="clip-path:url(#SVGID_22_);enable-background:new ;"> <use xlink:href="#b3988eb7-ad7c-457f-8ab4-ee6b46866edb" width="14" height="11" x="-7" y="-5.5" transform="matrix(0.7071 0.7071 -0.7071 0.7071 423.5 178)" style="overflow:visible;"></use> </g> </g> <g> <defs> <rect id="SVGID_23_" x="415.5" y="211.5" transform="matrix(0.7071 -0.7071 0.7071 0.7071 -29.6948 362.3105)" width="14" height="11"></rect> </defs> <clipPath id="SVGID_24_"> <use xlink:href="#SVGID_23_" style="overflow:visible;"></use> </clipPath> <g transform="matrix(1 0 0 1 0 0)" style="clip-path:url(#SVGID_24_);enable-background:new ;"> <use xlink:href="#b3988eb7-ad7c-457f-8ab4-ee6b46866edb" width="14" height="11" x="-7" y="-5.5" transform="matrix(-0.7071 0.7071 -0.7071 -0.7071 422.5 217)" style="overflow:visible;"></use> </g> </g> <g> <defs> <rect id="SVGID_25_" x="381" y="210" transform="matrix(0.7071 -0.7071 0.7071 0.7071 -40.2389 336.8546)" width="11" height="14"></rect> </defs> <clipPath id="SVGID_26_"> <use xlink:href="#SVGID_25_" style="overflow:visible;"></use> </clipPath> <g transform="matrix(1 0 0 1 0 0)" style="clip-path:url(#SVGID_26_);enable-background:new ;"> <use xlink:href="#b3988eb7-ad7c-457f-8ab4-ee6b46866edb" width="14" height="11" x="-7" y="-5.5" transform="matrix(-0.7071 -0.7071 0.7071 -0.7071 386.5 217)" style="overflow:visible;"></use> </g> </g> <circle class="st9" cx="404" cy="185" r="2"></circle> <circle class="st9" cx="416" cy="191" r="2"></circle> <circle class="st9" cx="405" cy="197" r="2"></circle> <circle class="st9" cx="414" cy="206" r="2"></circle> <circle class="st9" cx="391" cy="204" r="2"></circle> </svg> 