<svg
  xmlns="http://www.w3.org/2000/svg"
  viewBox="0 0 150 25.31"
>
    <path
      fill="#fff"
      d="M38.44,18.94c0,1.87-.75,2.62-2.25,2.62s-2.25-.93-2.25-2.62V.38H29.81V18.75c0,4.12,2.44,6.56,6.38,6.56s6.37-2.25,6.37-6.56V.38H38.44ZM9.94,12c1.87-.75,2.81-3,2.81-5.25,0-4.13-2.06-6.56-6.56-6.56H0V24.75H6.75c4.88,0,6.56-3,6.56-7.12C13.31,14.63,12,12.94,9.94,12ZM4.13,3.75h1.5c1.87,0,2.81,1.13,2.81,3.56A2.87,2.87,0,0,1,5.63,10.5H4.13ZM6,21.37H4.13V13.88h1.5c2.43,0,3.56,1.31,3.56,3.75C9,20.06,8.25,21.37,6,21.37Zm44.63-7.31h5.43V10.31H50.63V3.94h7.12V.19H46.5V24.75H58.13V21h-7.5ZM21,.38H16.69V24.94H27.56V21.19H21ZM128.44,24.94h4.12V.38h-4.12ZM118.31,0c-4.5,0-6.37,2.81-6.37,6.19V18.75c0,3.56,2.06,6.19,6.37,6.19a7.3,7.3,0,0,0,4.13-1.5l2.24,1.5V12.56h-6.93v3.38h3v3c0,2.81-2.25,2.62-2.25,2.62h-.19c-1.69,0-2.25-.93-2.25-2.81V6.37c0-1.87.56-2.81,2.25-2.81s2.25.94,2.25,2.81V8.25h4.12V6.19C124.87,2.81,122.81,0,118.31,0Zm-42,0c-4.5,0-6.37,2.81-6.37,6.19V18.75c0,3.56,2.06,6.19,6.37,6.19s6.38-2.81,6.38-6.19V6.19C82.69,2.81,80.63,0,76.31,0Zm2.25,18.75c0,1.88-.56,2.81-2.25,2.81s-2.25-.93-2.25-2.81V6.37c0-1.87.57-2.81,2.25-2.81s2.25.94,2.25,2.81ZM146.25.38V15L140.44.38h-3.75V24.94h3.75V10.31l5.81,14.63H150V.38ZM103.69,24.94h4.12V.38h-4.12ZM99.56,7.5c0-5.25-2.43-7.31-7.12-7.31h-6V24.75h4.12V14.81h2.06l3,10.13h4.32L96.37,13.88C97.88,13.12,99.56,11.44,99.56,7.5Zm-7.5,3.94h-1.5V3.75h1.5c2.25,0,3.19.75,3.19,3.75S94.5,11.44,92.06,11.44Z"
    />
</svg>
