<?xml version="1.0" encoding="UTF-8"?> <!-- Generator: Adobe Illustrator 23.1.0, SVG Export Plug-In . SVG Version: 6.00 Build 0) --> <svg xmlns="http://www.w3.org/2000/svg" xmlns:xlink="http://www.w3.org/1999/xlink" version="1.1" id="Calque_1" x="0px" y="0px" viewBox="0 0 512 512" style="enable-background:new 0 0 512 512;" xml:space="preserve"> <style type="text/css"> .st0{fill:#E2001A;} .st1{fill:#FFFFFF;} </style> <g> <rect x="0.8" y="1.4" class="st0" width="512" height="512"></rect> <g> <path class="st1" d="M87.6,243.5h-1.1v-54.7H64.8v260.6h21.7V300.7c0-47.6,23.6-93.5,71.2-96.5v-19.5 C121.1,186.7,98.1,210.6,87.6,243.5"></path> <path class="st1" d="M322.5,188.9h126.3v260.5H322.5V188.9z M448.8,150.6H322.5V65.3h126.3V150.6z"></path> <path class="st1" d="M227.9,161.2c0-34.6,5-60.6,45.6-60.6c3.2,0,6.6,0.2,9.8,0.5V63.4c-5.2-0.6-10.8-1-16.8-1 c-69.7,0-85.7,40.6-85.7,102.7v23.6v38.1v222.5h47.1V226.9h55.4v-38.1h-55.4V161.2z"></path> </g> </g> <polygon class="st1" points="-417.3,817.9 -414.3,817.9 -414.3,817.9 -417.3,817.9 "></polygon> </svg> 