<?xml version="1.0" encoding="UTF-8"?> <!-- Generator: Adobe Illustrator 25.0.0, SVG Export Plug-In . SVG Version: 6.00 Build 0) --> <svg xmlns="http://www.w3.org/2000/svg" xmlns:xlink="http://www.w3.org/1999/xlink" version="1.1" id="Layer_1" x="0px" y="0px" viewBox="0 0 682.3 534.3" style="enable-background:new 0 0 682.3 534.3;" xml:space="preserve"> <style type="text/css"> .st0{fill:#028B3F;} .st1{fill:#DC0816;} .st2{fill:#E679A6;} .st3{fill:#F0BC00;} .st4{fill:#E9E7C4;} .st5{fill:#EA7AAC;} </style> <g id="KUEBIKO_BG"> </g> <g id="KUEBIKO_FARBE"> </g> <g id="FIREWORK_BG_1_"> <path class="st0" d="M91.6,0C91.6,0,0,0,0,91.3v351.8c0,0,0,91.3,91.6,91.3h499.2c0,0,91.5,0,91.5-91.3V91.3c0,0,0-91.3-91.5-91.3 C590.8,0,91.6,0,91.6,0z"></path> </g> <g id="FIREWORK_FARBE"> <polygon class="st1" points="248.2,43.3 268.5,94.6 284.6,87.1 263.2,34.7 "></polygon> <polygon class="st1" points="100.6,376.9 148.8,352.3 157.3,367.3 109.2,394 "></polygon> <polygon class="st1" points="403.3,459.3 419.3,450.7 439.6,504.2 422.5,512.7 "></polygon> <polygon class="st1" points="535.9,202.6 544.4,217.6 595.8,201.6 591.5,184.4 "></polygon> <polygon class="st2" points="261.5,179.5 198.4,117.2 187.1,128.5 252.8,193.3 "></polygon> <polygon class="st2" points="257.1,350.5 268.4,361.8 204.4,425.7 194,413.6 "></polygon> <polygon class="st2" points="412.7,364.4 423,350.5 488.7,417.9 478.3,428.3 "></polygon> <polygon class="st2" points="442,201.1 431.7,189.8 498.2,127.6 509.4,139.7 "></polygon> <polygon class="st3" points="330.8,128.1 329.8,218.9 346.4,218.9 347.4,127.1 "></polygon> <polygon class="st3" points="278.1,262.9 278.1,282.4 175.5,282.4 175.5,266.8 "></polygon> <polygon class="st3" points="333.7,323.5 348.4,323.5 347.4,416.2 330.8,416.2 "></polygon> <polygon class="st3" points="394.3,268.8 394.3,286.3 488.1,285.4 486.1,268.8 "></polygon> <polygon class="st1" points="343.1,257 327.4,266.7 327.4,283.4 337,288.6 358.1,279 359.8,263.2 "></polygon> <path class="st4" d="M392.3,149.3l9.9,5.4c0,0-6.6,4.9-5.4,8.2c1.2,3.3,11.1,13.2,11.1,16.1s-7.4,15.6-7.4,15.6l-12.8-5.8l4.1-9.9 l-6.2-8.2l-4.1-11.5L392.3,149.3z"></path> <polygon class="st4" points="431.5,334.5 425.2,327 440.2,316.4 450.8,323.9 461.4,322.6 465.7,333.2 452,340.1 442.1,332 "></polygon> <polygon class="st4" points="372.3,360 382.9,361.9 380.4,371.2 386.6,378.1 384.8,393.6 371.7,391.1 376.7,381.2 372.9,376.2 367.3,369.4 "></polygon> <polygon class="st4" points="297.6,355.6 307.5,361.9 305,369.4 310,378.7 307.5,391.1 295.1,390.5 300.1,378.7 293.8,372.5 291.3,361.2 "></polygon> <polygon class="st4" points="244.6,320.1 252.7,314.5 247.7,305.2 239.6,301.5 232.8,304.6 222.8,299.6 217.2,308.9 225.3,315.8 237.1,313.3 "></polygon> <polygon class="st4" points="244.6,242.3 260.8,233.5 253.3,221.7 242.1,226.7 233.4,219.2 222.8,222.3 220.3,235.4 229.7,237.3 234.7,234.8 "></polygon> <polygon class="st4" points="292,184.4 301.9,188.1 309.4,175.6 303.8,167.5 310.6,160.7 304.4,154.4 292.6,161.9 293.8,170.6 "></polygon> <polygon class="st4" points="432.7,246 427.7,242.3 435.2,229.8 443.3,229.8 448.9,236 457,237.9 461.4,236 463.9,246 450.8,251 445.8,247.3 442.7,242.9 "></polygon> <polygon class="st2" points="454.8,40 427.9,87.3 442,92.5 470.2,49 "></polygon> <polygon class="st2" points="544.4,348.3 589.1,375.1 581.4,391.8 535.4,363.6 "></polygon> <polygon class="st2" points="278.3,453.2 254,503.1 238.6,494.1 261.7,449.3 "></polygon> <polygon class="st2" points="152.9,197.3 156.8,182 108.2,162.8 103,180.7 "></polygon> <g> <g> <path class="st3" d="M552,429.5c12.5,8.6,28,15,43.5,12.8c5.5-0.8,13.7-2.4,16.4-8c2.6-5.4-2-9.9-6.6-11.8 c-5.2-2.1-11.8-2.7-16.4,1.1c-4.5,3.8-5.1,10.3-4,15.6c2.6,12.8,12.9,22.8,24.8,27.2c4.1,1.5,4.4-5.6,0.7-7 c-8.2-3-15-9.3-18.2-17.4c-1.5-3.8-2.7-9.4,0.7-12.5c2.3-2.1,9.8-2.7,12,0c2.6,3.2-8.1,5.2-10.2,5.5c-4.8,0.7-9.8,0.5-14.6-0.4 c-9.4-1.8-17.7-6.3-26-10.9C550.4,421.9,549.2,427.6,552,429.5L552,429.5z"></path> </g> </g> <g> <g> <path class="st3" d="M124.1,418.6c-4,9.6-10.9,18.5-18.6,25.3c-4,3.6-8.6,7.2-13.6,9.5c-2.9,1.3-6.5,2.2-8.7-0.5 c-2.1-2.6-0.6-6.1,1.2-8.3c3.2-3.6,9.6-6.1,14.1-3.5c5.2,3,3.6,10.3,1.9,14.9c-3.8,10.5-10.6,19.7-18.1,27.7 c-2.5,2.7,0.8,8.7,3.8,5.8c9.1-8.6,17.3-20.2,20.8-32.4c2.9-9.9,0.5-22.7-11.6-24.1c-10.5-1.2-21.9,8.1-19.2,19.2 c1.2,4.8,4.9,8.8,9.9,9.4c6.1,0.8,11.8-3.2,16.5-6.5c12.2-8.6,20.5-20.2,26.8-33.6C131,418.3,125.7,414.7,124.1,418.6 L124.1,418.6z"></path> </g> </g> <g> <g> <path class="st3" d="M67.4,42.6c2.6,13.6,6.3,27.9,13.7,39.8c4.8,7.7,17.6,20.5,27.6,13.6c9.6-6.6,0.6-23.2-7.8-26.5 c-5.4-2.2-10.8,0.2-13.6,5.2c-3.2,5.6-1.8,12.3,0.9,17.8c6.2,12.7,17.7,22.1,31.1,26.4c4.2,1.4,4.4-5.8,0.7-7 c-9.6-3.1-17.9-9.2-23.6-17.5c-3-4.4-7.6-12.7-2.3-17.2c5.3-4.5,11.7,3.4,12.2,8.6c0.9,8.4-10.3,3.6-13.6,1 c-3.8-3-6.6-7.1-8.9-11.3c-5.4-10.2-8.7-21.9-10.7-33.1C72.4,38.4,66.6,38.4,67.4,42.6L67.4,42.6z"></path> </g> </g> <g> <g> <path class="st3" d="M620.2,30.9c-0.2,8.4-5.3,14.6-11.1,20.4c-2.8,2.8-6.2,6.3-10.4,6.8c-5.8,0.6-7.8-6.9-1.9-8.1 c10.6-2.1,2.9,15.9,0.9,19.7c-3.7,7.2-8.8,13.4-15,18.5c-3,2.5,0.7,8.7,4,6c10.5-8.6,19.4-21.2,21.7-34.8 c0.9-5.5-0.2-12-5.3-15.1c-4.3-2.6-10.5-2-13.8,2.1c-3.3,4.1-2.9,10.4,0.2,14.5c3.5,4.7,10.1,5.2,15.1,2.9 c6-2.8,11.4-9.1,15.3-14.3c3.9-5.2,6.5-11.3,5.6-17.9C625,28.6,620.2,27.3,620.2,30.9L620.2,30.9z"></path> </g> </g> </g> <g id="FIREWORK"> <g> <path d="M280.6,260.8c-0.2,7.7,0.4,15.2,1.8,22.8c-2.6,1-5.2,1.2-7.8,1.3c-10.6,0.5-21.3-0.2-31.9,0.3c-4.9,0.2-9.8,0.5-14.7,1.1 c-4.3,0.5-8.7,0.1-13.1-0.1c-1.4-0.1-2.7,0-4.1,0.1c-1.4,0.1-3.1,1.1-4.3,0.3c-1.4-1-2.4,0.8-3.8,0c-0.8-0.5-2.4,0.6-3.6,0.4 c-3.5-0.7-7.1,0.2-10.5-0.7c-2.1,1.1-4.4,0.2-6.6,0.6c-2.7,0.5-5.5,0.4-7.5-2.1c-0.3-0.4-0.7-0.7-0.8-1.1 c-1.9-4.6-2.6-9.3-1.4-14.2c0.5-1.8,1.6-3.2,3.3-4.2c2.6-1.6,5.5-1.3,8.2-1.6c5.1-0.6,10.3-0.5,15.4-1.4c5.6-1,11.2-0.5,16.8-0.8 c4.1-0.2,8.2-0.4,12.2-0.3c6.4,0.2,12.7-0.9,19.1-0.4c3.8,0.3,7.5-0.5,11.3-0.5c5.8,0,11.6-0.1,17.4,0.4 C277.2,260.8,278.6,260.3,280.6,260.8z M180.8,279.7c1.7-0.6,3-1,4.6-0.4c1.1,0.4,2.2,0.1,3.4-0.1c3.3-0.5,6.6-0.4,9.9-0.2 c1,0.1,2,0.7,3,0.5c4.3-0.7,8.6-0.5,12.9-0.6c2-0.1,4.2,0.4,6.1,0.2c4.5-0.5,9-0.8,13.6-1c1.7-0.1,3.4,0.1,5.1-0.2 c4.3-0.8,8.7-0.4,13-0.1c5.9,0.4,11.6-0.2,17.4-0.5c2-0.1,4.1,0.9,6.1-0.2c-0.6-3.4-1.9-6.7-1.6-10c-1.6-1.1-3-0.5-4.4-0.5 c-8,0.4-15.9,0.8-23.9,1.4c-1.6,0.1-3.1-0.6-4.7-0.3c-7.9,1.4-15.9,0.9-23.8,1c-3.5,0-7.1,0-10.5,0.4c-3.2,0.4-6.4,0.3-9.5,0.6 c-5.5,0.6-11.1,0.7-16.7,1c-1.3,2-0.1,4.3-0.8,6.3C179.6,277.7,180.4,278.6,180.8,279.7z"></path> <path d="M392,288c-0.2-4.6-0.3-8.9-0.5-13.2c-0.1-1.8-0.2-3.6-0.5-5.5c-0.4-2,0-2.6,1.9-3c2.8-0.5,5.6-1,8.4-1.3 c3.3-0.3,6.5-0.4,9.8-0.6c0.7,0,1.4,0.1,2,0.3c0.9,0.3,1.8,0.4,2.7,0.2c1.9-0.4,3.8-0.3,5.8,0c2.8,0.4,5.6-0.1,8.5,0 c3.6,0.2,7.3-0.1,10.9,0.1c4,0.2,8-0.1,11.9,0.1c5.7,0.3,11.4,0.3,17.1,0.5c3.5,0.1,7.1,0.3,10.6,0.1c2.3-0.1,4.5,0.7,6.8,0.5 c1.7-0.2,3.3,1.5,3.8,3.4c0.5,1.8,0.9,3.6,0.9,5.4c0.1,2.8,0.2,5.7,0.3,8.5c0.1,3-2,5.4-4.9,5.5c-3.8,0.1-7.5,0.4-11.2,0.9 c-4.7,0.6-9.4,0.5-14,0.8c-3.4,0.2-6.8-0.2-10.2-0.2c-2.7,0-5.4,0-8.1,0.4c-1.8,0.2-3.5-0.5-5.3-0.4c-3.4,0.1-6.8-0.1-10.2,0.1 c-4.4,0.2-8.9,0-13.3,0.1c-4.6,0.2-9.2-0.5-13.7-0.9C398.5,289.5,395.1,289.9,392,288z M397,273.8c-0.2,2.4,0.3,4.7,0.6,7 c0.3,1.7,0.7,2.1,2.5,2.3c3.8,0.4,7.7,0.7,11.5,1.1c6.6,0.7,13.2,0.5,19.8-0.3c2-0.2,4-0.5,6.1-0.4c2.4,0.1,4.8,0,7.1-0.3 c2.4-0.3,4.7-0.7,7.1-0.7c5.9-0.1,11.9-0.5,17.8-0.8c0.9,0,1.9,0.2,2.7-0.1c2.8-0.8,5.6-0.9,8.4-0.7c0.9,0.1,1.8,0.2,2.8-0.5 c-0.5-2.2,1.4-4.5-0.2-6.8c-2.9-0.8-5.9-0.5-8.8-0.7c-5.7-0.3-11.4-0.7-17.1-0.5c-4.3,0.2-8.6,0-12.9,0.1 c-7.1,0.1-14.1,0.3-21.2,0.2c-2.6,0-5.2,0.7-7.9,0.3c-4.6-0.6-9.1-0.2-13.7-0.5C400.1,272.3,398.5,272.4,397,273.8z"></path> <path d="M199.1,114.2c1.6,0.3,3.2,0.9,4.4,2.2c3.5,3.8,7.6,6.9,10.9,10.8c2.3,0.9,2.9,3.9,5.6,4.3c1.2,1.9,3.1,3.2,4.7,4.9 c0.3,0.3,0.6,0.7,0.9,1c4,3.2,7.2,7.3,10.9,10.9c3.3,3.1,6.3,6.5,9.5,9.9c1.6,1.7,3.4,3.3,5.1,5c4.8,5.1,9.5,10.2,14,15.5 c0.3,0.4,0.6,0.7,0.9,1.1c1,1.4,1,2.1,0,3.4c-0.6,0.7-1.2,1.4-2,1.9c-3.3,2.7-6.2,5.8-8.8,9.2c-1.1,1.4-1.7,1.6-3.2,0.7 c-1.3-0.7-2.6-1.5-3.7-2.5c-4.4-4-9-7.7-13.5-11.6c-4.9-4.3-9.6-8.7-14.5-13.1c-1.7-1.5-3.3-3.2-4.9-4.8c-3.2-3.3-6.5-6.4-9.5-9.9 c-4.1-4.8-9.1-8.6-13.1-13.4c-0.9-1.1-1.8-2.1-2.6-3.2c-0.9-1.2-1.9-2.3-3.1-3.2c-2.8-2.1-3.3-4.8-0.9-7.3c2.8-3,5.2-6.3,7.8-9.5 C195.3,114.9,197.5,114,199.1,114.2z M258.9,182.1c-1.2-2.6-3.6-4.1-5.2-6.3c-3.2-4.4-7.6-7.5-11.1-11.6c-1.7-2-4-3.8-5.9-5.7 c-2-2-4.8-3.2-6-5.9c-4-3.6-7.9-7.2-11.9-10.8c-6-5.4-12.2-10.7-17.9-16.4c-0.7-0.7-1.3-1.6-2.6-1.5c-1.9,2.4-4.3,4.3-5.9,7 c0.9,1.1,1.7,2.3,2.9,3c3.1,2,5.5,4.8,8.1,7.4c2.8,2.7,5.5,5.5,8.2,8.3c1.7,1.7,3.1,3.7,5,5.1c3.5,2.6,6,6.2,9.3,9.1 c3.1,2.7,5.7,5.9,8.6,8.8c3.8,3.6,7.6,7.2,11.6,10.6c2.4,2.1,5,3.8,7.7,5.8C255.6,186.5,258,184.9,258.9,182.1z"></path> <path d="M330.9,221.6c-1.6-2.2-1.5-4.6-1.8-6.8c-0.1-1.2-0.2-2.5-0.4-3.7c-0.6-3.9-0.6-7.8-0.9-11.6c-0.3-4.9-0.6-9.8-0.9-14.7 c-0.3-5.4-0.1-10.9-0.1-16.4c0-3.5,0-7.1,0.3-10.6c0.5-5.5-0.1-10.9,0.1-16.4c0.1-1.7,0.3-3.4,0.5-5.1c0.2-2,0.6-4,0.3-6.1 c-0.7-3.6,1.5-5.6,4.3-5.7c4.4-0.2,8.6-1,13-1.1c4.3-0.1,6.1,2.4,6.4,6c0.2,1.9,0,3.9,0,5.8c-0.1,5,0.1,10,0.3,14.9 c0.2,3.9,0,7.8,0.2,11.7c0.4,8.6-0.2,17.1-0.2,25.6c0,7.5-0.6,15-0.8,22.6c-0.1,2.8-0.3,5.5-0.6,8.2c-0.2,2.5-1,3.1-3.5,3.2 c-0.8,0-1.6,0-2.4-0.1c-3.7-0.4-7.3-0.5-11,0.1C332.9,221.5,332,221.5,330.9,221.6z M333.6,131.9c-0.1,1.8-0.3,3.1-0.1,4.5 c0.6,3.6,0.4,7.3,0.4,10.9c0,4.1,0,8.2-0.1,12.3c-0.1,2.2-0.3,4.4-0.1,6.5c0.5,4.6-0.1,9.1,0,13.7c0.1,4.7-0.3,9.4,0,14.1 c0.2,4.2,0.3,8.4,0.5,12.6c0.2,3.4,0.8,6.7,1.4,10.5c3-1.1,5.9,0.1,8.5-1.6c0.9-1.9,1-4,0.9-6c0-0.8-0.2-1.6,0-2.4 c1-5.3,0.1-10.7,0.5-16.1c0.2-3.2,0.3-6.4-0.2-9.6c-0.5-3.3-0.2-6.6-0.2-9.8c0.1-5.6-0.6-11.1-0.7-16.6c0-6.8-0.7-13.7-0.8-20.5 c0-1,0.2-2.1-0.9-3C339.7,131.6,336.8,131.8,333.6,131.9z"></path> <path d="M442.2,204.4c-3.2-4.6-7.1-8.2-11-11.8c-2.3-2.2-2.3-2.9-0.4-5.2c2.9-3.4,5.9-6.7,8.9-10c2.3-2.5,4.4-5.3,7-7.5 c5.3-4.7,9.5-10.5,15-14.9c0.1-0.1,0.2-0.1,0.2-0.2c2.3-3.5,5.7-5.9,8.6-8.8c2.3-2.3,4.4-4.8,7.1-6.6c1.5-1,2.7-2.5,3.9-3.8 c3.6-3.7,7.6-6.9,11-10.8c0.3-0.3,0.6-0.7,1-0.9c3.1-1.6,5.7-2.1,8.6,1.2c2.6,3,4.8,6.3,7.6,9.2c2.5,2.6,2,5.4-0.9,7.6 c-0.7,0.6-1.5,1.1-2,1.8c-3.2,4.5-7,8.4-11.1,12.2c-3.5,3.2-6.2,7-9.6,10.2c-4.2,4-8.1,8.4-12.4,12.3c-3.1,2.9-6,6.1-9.3,8.6 c-5,3.7-9.1,8.4-14.2,11.9c-1.9,1.3-3.6,2.8-5.4,4.1C444.3,203.6,443.4,203.9,442.2,204.4z M497.9,132.5c-1.1,0-1.7,0.6-2.2,1.2 c-2.4,2.8-5.4,4.9-8,7.5c-6.5,6.3-13.6,11.8-20,18.2c-1.4,1.4-3.1,2.3-3.9,4.2c-2.2,0.9-3.5,2.9-5.2,4.4c-2,1.7-4,3.4-5.7,5.4 c-3.5,4.1-7.7,7.4-11.1,11.6c-1.6,1.9-3.5,3.5-4.5,5.8c1.2,2.8,3.5,4.5,5.3,6.6c6.9-4.1,12.1-9.9,18-15c4.4-3.8,8.4-8.1,12.3-12.3 c3.2-3.4,6.8-6.5,9.9-9.9c4.8-5.2,10-10,15-15c1-1,2-2,3.1-2.7c1.3-0.8,2.2-1.9,3.1-3.2C502,136.7,500,134.5,497.9,132.5z"></path> <path d="M479.2,430.6c-2.9-0.4-4.6-2.1-6.3-3.5c-3.5-2.9-7.1-5.7-10.5-8.7c-8.4-7.3-16.5-14.7-24.3-22.7c-2.5-2.5-5.1-4.9-7.4-7.6 c-4.1-4.9-9.3-8.7-13.3-13.7c-0.9-1.1-1.7-2.1-2.5-3.3c-0.8-1-1.6-2-2.7-2.6c-3.7-2.4-3-5.6-1.1-7.5c2.9-3,5.1-6.4,7.9-9.4 c3.2-3.5,6.4-2.8,9.1-0.6c1.6,1.3,2.9,2.9,4.4,4.4c3.4,3.3,6.7,6.8,10.4,9.8c4.4,3.6,7.8,8.1,12.3,11.5c0.7,0.5,1.3,1.3,1.8,2 c0.9,1.3,2.1,2.4,3.3,3.4c2.7,2.5,5.1,5.2,7.7,7.8c3.3,3.3,6.6,6.5,9.9,9.9c2,2,3.8,4.2,5.6,6.4c2.3,2.7,4.9,5.1,7.1,7.9 c1.6,2.1,1.7,2.9-0.2,4.7C486.4,422.5,482.3,426,479.2,430.6z M484,416.9c-0.9-1.2-1.5-2.5-2.5-3.4c-3.5-3.1-6-7.2-9.8-10 c-1.6-1.3-2.6-3.2-4.2-4.5c-2.5-2.2-4.6-4.8-7.3-6.8c-2.6-2-4.8-4.5-7-6.8c-4.4-4.4-9.3-8-13.7-12.3c-4.4-4.2-8.9-8.2-13.3-12.3 c-0.8-0.8-1.5-1.7-2.8-2.1c-2.2,2.3-4.4,4.5-6.2,7.1c1.2,1.3,2.3,2.4,3.5,3.4c2.6,2.1,5.3,4.4,7.5,6.9c2.6,2.9,5.5,5.5,8.2,8.3 c1.5,1.7,3,3.6,4.8,4.9c3.6,2.6,6,6.2,9.3,9c3.2,2.7,5.8,6.1,8.8,9c3.6,3.6,7.6,6.8,11.3,10.4c2.3,2.3,5.2,3.9,8,6 C480.6,421.6,482.9,419.9,484,416.9z"></path> <path d="M203.4,427.7c-3.1-4.5-7.1-8.1-11-11.8c-2.1-2-2.1-2.8-0.2-4.9c3-3.5,6.1-6.8,9.1-10.2c2.2-2.5,4.3-5,6.7-7.3 c2.5-2.3,4.8-4.9,7.2-7.3c2.9-2.8,5.8-5.6,8.4-8.5c3-3.3,6.4-6.2,9.5-9.4c1.9-2,3.6-4.2,6.1-5.6c1.6-0.8,2.7-2.5,3.9-3.7 c3.7-3.8,7.7-7.1,11.2-11c0.3-0.3,0.7-0.6,1.1-0.8c3.1-1.6,5.6-1.5,8.2,1.5c2.6,3,4.8,6.3,7.6,9.2c2.5,2.6,2,5.4-1,7.5 c-1.1,0.8-2,1.8-2.9,2.9c-3.6,4.9-7.9,9.1-12.5,13.1c-1.6,1.4-2.9,3.2-4.3,4.8c-3.4,4-7.4,7.5-11,11.2c-4.4,4.5-9,8.8-13.6,13 c-1.8,1.6-3.8,2.9-5.5,4.5c-3.6,3.2-7.1,6.4-11,9.3C207.8,425.6,206.2,427.3,203.4,427.7z M259.1,355.7c-0.9,0.6-1.6,0.9-2.1,1.5 c-2.4,2.6-5.2,4.8-7.8,7.3c-6.6,6.3-13.7,12-20.2,18.4c-1.4,1.4-2.6,2.9-4,4.1c-1.6,1.4-3.2,2.9-4.8,4.3c-2.3,2.2-4.7,4.4-6.9,6.7 c-3.4,3.6-7.1,7-10.5,10.8c-1.6,1.8-3.3,3.4-4.2,5.4c1.1,2.9,3.6,4.5,5.1,6.6c0.4,0,0.5,0,0.6-0.1c7.1-4.9,13.1-11,19.5-16.7 c1-0.9,1.8-2,2.8-3c2.6-2.3,4.7-5.3,7.6-7.3c2.6-4.2,6.8-6.8,10-10.3c4.6-5.1,9.6-9.7,14.5-14.5c1.1-1,2.1-2.1,3.4-2.9 c1.3-0.8,2.2-2,3-3.1c-0.5-1-1-1.7-1.7-2.4C262,359,260.6,357.4,259.1,355.7z"></path> <path d="M350.5,319.7c1.4,1.1,1.8,2.3,1.7,4c-0.2,3.8,0.2,7.6-0.3,11.3c-0.7,5.1-0.4,10.3-0.7,15.4c-0.1,2.3-0.4,4.7-0.1,7.1 c0.3,2.1-0.1,4.3-0.2,6.5c-0.2,7.1-0.3,14.2,0,21.3c0.4,8.6,0.7,17.2,1.1,25.8c0.1,1.8,0.3,3.6-0.1,5.5c-1.5,1-3,1.4-4.8,1.4 c-2,0-3.9,0.5-5.8,0.9c-3.2,0.8-6.4,0.6-9.5-0.2c-1.1-0.3-1.8-0.9-2.1-2c-0.2-0.9-0.5-1.8-0.6-2.7c-0.5-4.2-0.9-8.4-1.4-12.6 c-0.8-8.3-0.6-16.6-0.6-25c0-5.2,0.8-10.5,1.1-15.7c0.3-5.6,0.3-11.2,0.5-16.8c0.1-2.9,0.4-5.7,0.5-8.5c0.1-2.1,0.1-4.1,0-6.2 c-0.1-1.9,0.2-3.6,0.8-5.4c0.6-1.9,1.7-2.8,3.7-2.9c4.1-0.2,8.2-0.4,12.4-0.7C347.6,320.1,349,319.9,350.5,319.7z M335,412.6 c2.8-0.3,5.2-0.5,7.7-0.7c0.9-0.1,1.6-0.5,1.6-1.5c0.2-3.5,0.7-7.1,0.5-10.6c-0.3-7.4,0.4-14.8,0.2-22.3c-0.1-7-0.1-14-0.2-20.9 c-0.2-8.6-0.4-17.1,0.3-25.6c0.1-1.4,0.4-3-0.8-4.7c-2.4,1.2-5.1,0.2-7.6,0.3c-0.6,0.8-0.6,1.4-0.7,2.1c-0.3,2.3,0.3,4.6,0,6.8 c-0.4,4.2-0.5,8.4-0.5,12.6c0,2.6,0,5.3-0.1,7.9c-0.1,1.7-0.8,3.4-0.8,5.1c-0.1,6.3-0.9,12.5-0.7,18.9c0.1,5.8,0.1,11.6,0.1,17.5 C334.2,402.5,335.2,407.4,335,412.6z"></path> <path d="M321.2,277.2c0.8-1.4-0.5-2.6-0.3-4c0.5-3,0.4-6.1,1.9-9c0.5-1,1-1.9,2-2.5c1.1-0.7,1-2.2,2-3.1c2.5-2.1,5.1-3.9,8.2-4.8 c0.8-0.2,1.6-0.4,2.3-0.8c3.8-2.1,7.9-1.5,11.9-1.3c0.7,0,1.3,0.3,1.9,0.7c2.6,1.7,5.2,3.2,7.8,5c1.4,1,2.3,2.5,3.2,4 c1.7,2.9,2.9,6.1,3.4,9.3c0.5,2.6,0.5,5.4-0.9,7.9c-0.6,1.1-1.2,2.3-1.3,3.5c-0.4,2.8-2,4.9-4,6.6c-2,1.8-4.2,3.6-6.6,4.9 c-2.3,1.2-4.7,1.8-7.4,1.9c-3.5,0.1-6.7-0.6-10-1.3c-2-0.4-4-1.5-5.5-3c-1.5-1.3-3.7-1.9-4.1-4.3c0-0.3-0.4-0.6-0.7-0.7 c-2.1-0.6-2.7-2.5-3-4.2C321.6,280.5,320.2,279,321.2,277.2z M342.7,284.4c1-0.1,2.1-0.3,3.3-0.5c5.6-0.8,8.6-6.2,8-11.2 c-0.3-2.1-1.5-3.7-1.9-5.6c-0.4-1.5-2.1-2-3.1-3.1c-0.7-0.8-1.7-0.4-2.6-0.4c-2.4,0-4.8,0.2-7.1,0.1c-2.3-0.1-3.3,0.9-4.4,2.3 c-0.5,0.6-0.7,1.5-1.2,2c-2.5,2.7-2.1,6-1.3,8.9c0.6,2.3,2.2,4.7,5.1,5.4c0.5,0.1,0.9,0.2,1.2,0.6 C339.5,284.6,341.2,284.1,342.7,284.4z"></path> <path d="M151.7,347.9c3.6,6.9,7.5,13.4,12.4,19.3c-1.3,1.7-2.8,2.9-4.5,3.9c-5.6,3.3-11.2,6.5-17,9.4c-5.3,2.7-10.5,5.7-15.6,8.7 c-4.8,2.8-9.5,5.9-14.3,8.8c-0.2,0.1-0.4,0.3-0.5,0.4c-2.5,1.4-4,1.1-5.4-1.3c-2.9-4.7-5.7-9.4-8.5-14c-0.8-1.2-1-2.5-1.1-3.9 c-0.1-1.3,0.4-2,1.8-2.5c2.4-0.9,4.4-2.4,6.7-3.4c6.1-2.8,11.3-6.9,17.2-9.8c4.3-2.1,8.3-4.9,12.4-7.3c3.5-1.9,7-3.8,10.7-5.4 C147.8,350,149.3,348.8,151.7,347.9z M111.4,389.3c3.4-1.6,6.3-3.2,9.2-5.1c2-1.3,3.8-3,6.1-3.8c3.9-1.4,7.1-4.1,11-5.4 c0.8-0.2,1.5-0.7,2.1-1.1c4.8-3.1,9.7-5.9,14.7-8.5c0.3-0.1,0.5-0.5,0.7-0.7c-0.8-1.6-2.2-2.5-3.2-3.8c-1.1-1.4-2-3-3.3-4.8 c-14,8.5-27.9,16.9-41.8,25.3C107.8,384.3,109.9,386.5,111.4,389.3z"></path> <path d="M422,446.9c1.3,1.5,2.3,3,3,4.7c2.4,6,4.6,12.1,6.8,18.3c2.3,6.6,4.4,13.2,7.5,19.5c2.1,4.3,3.8,8.8,5.6,13.3 c1,2.4,0.4,3.9-2,5c-5,2.2-10.1,4.2-15.2,6.3c-1,0.4-1.9,0.7-3,0.6c-2.4-0.1-2.7-0.4-3.5-2.8c-1.3-4-2.9-7.9-4.2-11.9 c-1.5-4.4-3.9-8.5-5.1-13.1c-0.8-3-2.1-5.8-3.4-8.6c-2.3-4.9-3.4-10.2-5.4-15.2c-0.7-1.7-1-3.5-1.6-5.2c-0.6-1.5-0.2-2.3,1.2-2.7 c6.6-1.8,12.6-4.8,18.5-8C421.2,447,421.5,447,422,446.9z M435.4,502c-0.6-3-1.4-5.8-2.8-8.3c-2.7-5-4.4-10.3-6-15.6 c-1.5-4.7-3.3-9.3-4.9-13.9c-1.1-3.1-2.4-6.1-3.6-9.1c-1.1,0.2-2.1,0.4-2.7,1.1c-1.1,1.4-2.8,2-4.3,2.6c-2.7,1.2-2.7,1.2-1.6,4 c2.3,5.6,4.6,11.2,7,16.8c1,2.4,2.5,4.7,3.1,7.2c0.6,2.6,1.8,4.9,3,7.2c0.4,0.7,0.7,1.5,0.9,2.2c1,3,2.3,5.9,3.7,9 c0.8-0.2,1.6-0.3,2.4-0.6C431.5,503.8,433.4,502.9,435.4,502z"></path> <path d="M289,89.4c-7.2,2.4-14.1,5.4-20.6,9.4c-1.2-1.4-2.3-2.9-3-4.6c-2.3-5.6-4.5-11.1-6.5-16.8c-2.2-6.3-4.5-12.5-7.1-18.6 c-2.2-5.1-4.5-10.3-6.7-15.4c-0.3-0.6-0.5-1.2-0.6-1.9c-0.1-1.2,0-2.3,1.3-2.9c0.3-0.2,0.6-0.4,0.9-0.5c5.2-2.3,10.5-4.5,15.8-6.7 c1.8-0.7,3.6-0.7,5.5,0.3c0.6,4,2.5,7.7,3.9,11.5c0.9,2.5,2.1,5.1,3.1,7.6c3.3,7.6,6.3,15.2,9.2,22.9c1.3,3.5,2.3,7.2,3.4,10.8 C287.9,85.8,289.1,87.1,289,89.4z M271.8,90.6c3.3-1.5,5.5-4,8.7-4.7c0.6-0.1,0.8-0.8,0.6-1.4c-0.1-0.7-0.4-1.3-0.7-1.9 c-2.4-5.6-4.7-11.2-7.1-16.7c-1.1-2.5-2.6-4.9-3.3-7.4c-0.5-1.9-1.1-3.7-2.1-5.4c-1.2-2.1-2-4.3-2.9-6.6c-0.8-2.1-1.8-4.1-2.6-6.2 c-3.1,0.6-5.6,2.2-8.5,3.4c0.8,2.2,1.4,4.5,2.4,6.5c2.7,5.5,5,11.2,6.8,17.1c1.5,4.7,3.4,9.2,5.1,13.8 C269.3,84.1,270.8,87,271.8,90.6z"></path> <path d="M533.7,201.5c2.1-1.9,4.6-2.7,7-3.7c7.2-3,14.7-4.9,22-7.5c3.8-1.3,7.6-2.5,11.3-4c5.2-2.1,10.4-4.2,15.6-6.2 c0.8-0.3,1.5-0.6,2.3-0.7c1.3-0.1,2.1,0.4,2.8,1.5c0.6,0.9,0.7,1.9,1.1,2.9c1.7,4.4,3.8,8.6,5.2,13.1c0.3,0.9,0.6,1.8,0.7,2.6 c0.2,2.8-0.3,3.4-3.1,4.2c-2.1,0.6-4.1,1.5-6.2,2c-6.3,1.6-12.1,4.8-18.3,6.5c-4.2,1.2-8.2,2.9-12.2,4.5 c-4.6,1.8-9.4,2.8-14.1,4.3c-1.1,0.3-2.1,0.8-3.2,1.1c-1.7,0.5-2.5,0.2-2.8-1.4c-1-4.5-3-8.7-4.8-12.9 C536,205.7,534.8,203.6,533.7,201.5z M589.3,188.9c-3.4,1-6.5,1.8-9.4,3.2c-2.4,1.1-4.8,2.3-7.3,2.9c-4,0.9-7.7,2.9-11.8,3.4 c-0.6,0.1-1.1,0.3-1.6,0.5c-5.3,2.1-10.6,4.1-16,5.9c-0.4,0.1-1.1,0.3-1,0.8c0.9,3.1,3.5,5.2,4.1,8.4c0.1,0.6,0.9,0.7,1.5,0.6 c0.7-0.1,1.3-0.4,2-0.6c5.6-2.1,11.1-4.3,16.7-6.4c2.5-1,5-2.4,7.6-3c1.9-0.5,3.7-1,5.4-1.9c2.1-1.2,4.4-1.9,6.7-2.7 c2.1-0.8,4.2-1.6,6.4-2.4C592,194.4,590.5,191.9,589.3,188.9z"></path> <path d="M446.1,98.4c-3.5-2-6.8-3.9-10.1-5.8c-3.3-1.8-6.8-3.3-10.3-4.6c0.3-2.2,1-4,2-5.7c3.2-5.8,6.7-11.4,10.1-17 c3.5-5.8,7.3-11.3,10.1-17.5c1.5-3.4,3.6-6.6,5.2-10c0.9-1.8,1.6-1.9,3.6-1c1.7,0.7,3.4,1.5,5.1,2.1c3.8,1.3,7.2,3.6,10.7,5.5 c0.7,0.4,1.3,0.9,1.9,1.5c1.7,1.8,1.8,2.8,0.5,4.9c-3.2,5.2-6.1,10.7-9.2,16c-3.5,6-6.9,12.2-10.5,18.1 C452.4,89.5,449.3,93.8,446.1,98.4z M444,90.2c2.9-3.2,4-6.9,6-10.1c2-3.2,4-6.4,5.4-9.9c1.5-3.7,4.2-6.5,5.6-10.1 c1.4-3.5,3.7-6.5,5.3-10c-2.5-2.1-5-3.6-7.5-4.9c-1.1,0.7-1.6,1.5-2.1,2.5c-1.7,3.5-3.3,7.1-5.4,10.3c-2.3,3.4-4,7.2-6.8,10.2 c-0.4,0.4-0.6,1-0.9,1.5c-2.7,4.9-5.3,9.8-8.3,14.5c-0.3,0.5-0.6,1-0.4,1.7C437.7,87.4,441.1,87.6,444,90.2z"></path> <path d="M543.4,344c2.9,0.8,5.2,2.3,7.6,3.6c7.1,3.8,13.4,8.6,20.1,13c5.3,3.5,11,6.2,16.1,9.8c1.6,1.1,3.5,1.7,5.2,2.7 c1.9,1.1,2,1.6,1.1,3.5c-0.8,1.6-1.6,3.3-2.3,5c-1.3,3.7-3.7,6.8-5.6,10.2c-0.6,1-1.3,1.9-2.3,2.5c-1.7,1.2-2.5,1.3-4.3,0.1 c-5.1-3.4-10.5-6.5-15.7-9.7c-6-3.8-12.2-7.3-18.1-11.3c-4.3-3-8.6-6-12.7-8.9c-0.4-0.9-0.1-1.5,0.2-1.9 c4.1-5.3,7.1-11.2,9.8-17.3C542.7,344.9,543,344.6,543.4,344z M545,352.9c-1.4,3.1-1.8,6.2-3.8,8.6c-0.5,0.6-0.2,1.4,0.4,1.8 c0.5,0.4,1.1,0.8,1.7,1.1c5.1,3,10.2,6.1,15.4,9.1c2.5,1.4,5.1,2.5,7.3,4.3c1.5,1.1,2.9,2.1,4.6,2.9c2.5,1.1,4.8,2.6,7.1,4.2 c0.7,0.4,1.2,1.1,2.3,0.7c1.8-2.1,3.3-4.5,4.7-7c-0.5-1.2-1.4-1.8-2.5-2.4c-3.3-1.8-6.8-3.4-9.8-5.6c-3.3-2.4-7-4.2-10-7.1 c-0.4-0.4-0.9-0.6-1.4-0.9c-4.9-3-9.8-5.7-14.5-9C546.2,353.3,545.8,353.2,545,352.9z"></path> <path d="M262.7,443.7c6.5,3.7,13.4,6.7,20.6,8.8c-0.1,2.3-0.7,4.1-1.5,5.9c-2.8,6-5.9,11.8-8.9,17.7c-3.1,6-6.4,11.9-8.8,18.2 c-1.3,3.5-3.1,6.9-4.5,10.4c-0.6,1.6-1.5,1.9-3,1.4c-5.5-1.8-11.1-3.7-16.3-6.4c-1.3-0.7-2.4-1.4-3.2-2.5c-0.9-1.1-1-2.2-0.3-3.5 c3-5.8,5.7-11.7,8.5-17.5c2.8-5.8,5.5-11.6,8.4-17.4c1.8-3.6,3.8-7,5.9-10.4C260.5,447,260.7,445.2,262.7,443.7z M274.8,455.4 c-3.3-1.3-6.9-1.3-10-3.7c-2.6,4.6-4.2,9.4-6.5,13.8c-2.3,4.6-3.8,9.5-6.4,14c-0.5,0.8-5.6,12.6-5.9,13.8c2.3,2,4.7,3.2,7.7,4.1 c0.9-0.6,1.4-1.5,1.8-2.5c2.1-5.9,5-11.5,8-17c1.9-3.4,3.9-6.7,5.5-10.3C270.8,463.6,272.8,459.6,274.8,455.4z"></path> <path d="M163.1,181.2c-3.4,6.8-5.8,13.9-7.5,21.4c-2.8-0.2-5.2-1.1-7.6-2c-7.6-2.6-14.6-6.4-22-9.3c-3.8-1.5-7.5-3.4-11.4-4.6 c-4.1-1.3-8.1-3.2-12.3-4.3c-2.2-0.6-2.5-1.3-1.6-3.5c0.4-1.1,0.4-2.2,0.7-3.4c1.1-4.6,2.8-8.9,4.5-13.3c0.4-1,1.1-1.8,1.8-2.5 c1.1-1.2,2.4-1.5,4-0.8c5.7,2.6,11.6,4.7,17.4,7c6.5,2.6,13,5.1,19.4,7.8c3.5,1.5,6.8,3.2,10.1,5 C159.9,179.5,161.6,179.5,163.1,181.2z M151.9,194.1c1.7-1.7,0.6-3.6,1.3-5.2c0.7-1.5,1.1-3.2,1.6-5c-3.2-2.2-7-2.8-10.5-4.3 c-3.4-1.5-7-3-10.6-3.9c-3.8-0.9-7-3.3-10.8-4.2c-3.6-0.9-7-2.6-10.5-3.9c-1.8,2.8-2.8,5.6-3.8,8.2c0.9,1.1,1.7,1.5,2.8,1.8 c6.1,1.8,12.1,4.2,17.8,7c4.3,2.1,8.8,3.8,13.2,5.7C145.6,191.6,148.8,192.8,151.9,194.1z"></path> <path d="M399.6,198.7c-0.9,0-1.6-0.1-2.2-0.7c-2-2.2-4.7-3.2-7.5-4c-1.3-0.4-2.6-0.9-3.8-1.5c-2.5-1.3-2.9-3.3-1.2-5.6 c1.2-1.5,2.5-3,3.4-4.7c0.8-1.6,0.8-3.1-0.3-4.5c-1.1-1.3-2.1-2.8-3.4-3.9c-1.4-1.1-2.2-2.5-3.1-3.9c-3.2-5.2-1.7-10.1,0.9-14.9 c1.3-2.3,3-4.3,5.8-5.1c1.1-0.3,1.6-1.2,2.2-2.1c1.2-1.6,2.3-2,4.1-1.2c2.9,1.3,5.7,2.7,8.2,4.8c1.3,1.1,1.5,2.5,1.8,3.9 c0.1,0.6-0.4,1.1-0.9,1.4c-0.9,0.6-1.6,1.2-2.1,2.2c-0.7,1.4-2.2,2.6-1.7,4.3c0.5,2,1.6,3.8,3.3,5.1c2.9,2.2,5,4.9,6.3,8.3 c0.4,1.1,0.7,2.2,0.6,3.3c-0.2,5.2-1.6,9.9-4.9,14c-0.8,1-1.5,2-2.3,3C402,198.1,401,198.8,399.6,198.7z M397,155.6 c-0.2-1.6-1.5-1.5-2.3-2.1c-1.4-1.1-2.7-0.6-3.7,0.4c-1.6,1.5-3,3.1-4,5.1c-0.9,1.9-0.3,3.6-0.4,5.4c0,1.4,1.2,2.1,2.3,2.8 c2.7,1.9,4.5,4.4,5.8,7.4c2,4.5,2.2,8.8-1.6,12.6c-0.5,0.5-1.4,0.9-1.1,2c2.9-0.1,4.9,2,7.5,3c2.3-1.6,2.9-4.2,4.1-6.3 c0.8-1.4,1.1-3,1.1-4.6c0-2-0.5-3.8-1.8-5.4c-1.4-1.7-3.1-3.1-4.6-4.6c-2.4-2.4-4.1-5-4.1-8.7C394.2,159.7,395.4,157.6,397,155.6z "></path> <path d="M233.2,237.5c-0.8,1.7-2.4,2.3-4.1,3.2c-1.9-1.3-4.1-1.8-6.5-1.7c-0.7,0-1.4-0.1-2-0.3c-1.5-0.4-2.3-1.5-2.3-3.1 c0-0.7,0.1-1.4,0.3-2c0.8-2.7,1.4-5.5,2-8.3c0.6-2.8,2.1-5.2,5-6.6c2.2-1.1,4.2-2.6,7-2.5c2.4,0.1,4.5,0.6,6.3,2.1 c1.2,1.1,2.5,2.1,3.8,3c1.9,1.3,2.5,1.3,4.3,0c1.1-0.8,2.2-1.6,3.3-2.5c0.8-0.7,1.8-1.1,2.8-1.3c1-0.2,1.8-0.1,2.5,0.7 c2.4,2.8,4.5,5.8,6,9.1c0.2,0.4,0.4,1.1,0.2,1.3c-0.9,1.1-0.3,1.8,0.4,2.7c1.4,1.9,1.1,2.9-0.6,4.7c-2.2,2.3-4.9,3.8-7.6,5.2 c-1.6,0.9-3.1,1.9-4.7,2.8c-2.7,1.5-5.2,1.6-8,0.1c-2.2-1.3-3.9-3-5.6-4.9C235.2,238.5,234.6,237.9,233.2,237.5z M223.1,233.8 c2.3,0,4,0.6,5.7-0.9c1.6-1.4,3.6-1.4,5.5-1.1c2.1,0.4,3.9,1.2,5.5,2.6c1.5,1.4,2.9,2.9,5.1,3.9c4-2,8.1-4.1,12.4-6.2 c-1.2-2.8-2.6-5.1-4.6-7.3c-1.4,1-2.7,1.9-3.9,2.9c-0.6,0.6-1.2,1-2.1,1c-3,0-5.9-0.6-8-3c-0.8-0.9-1.5-1.7-2.4-2.5 c-3.6-3.2-8.8-2.2-10.9,2.2C224.2,228,224.4,230.7,223.1,233.8z"></path> <path d="M462.9,316.9c2.6,1.3,2.6,4,3.4,6.1c1,2.8,0.7,5.9,1.7,8.7c0.3,0.9-0.4,1.8-1.1,2.4c-2.4,1.9-4.8,3.8-7.3,5.7 c-1.9,1.4-4.1,2-6.4,2.5c-2.8,0.6-6.9-1.4-8.4-4.2c-0.7-1.2-1.4-2.3-2.6-3.2c-1.4-1.1-2.6-1.3-4-0.5c-0.9,0.5-1.9,1-2.6,1.6 c-1.1,1-2.1,1-3.4,1.2c-1.2,0.2-2.1,0-2.8-0.7c-2.3-2.5-4.9-4.8-6-8.2c-0.4-1.2-0.5-2.1,0.5-3.1c3.1-3.3,5.9-6.9,10-9.1 c2.9-1.6,5.8-2.2,9.1-1.7c2.8,0.4,4.5,1.6,6.2,3.5c1.1,1.3,2.2,2.6,3.9,3.3s3,0.5,4.4-0.7c1.4-1.2,2.4-2.8,4.3-3.3 C462.3,317,462.6,316.9,462.9,316.9z M433.1,330.6c2.1-1.4,4.5-2.2,7.2-2.3c1.7,0,3.2,0.3,4.4,1.5c1.7,1.6,3.8,3,4.9,5.2 c0.8,1.5,2.1,1.8,3.8,1.5c3.7-0.6,6.4-2.8,9-5.3c-0.6-1.3-0.3-2.9-1-4.1c-0.8-0.2-1.3,0-1.8,0.4c-2.3,1.8-4.7,1.2-7.1,0.4 c-3.3-1-5.9-2.9-7.9-5.7c-0.4-0.6-0.8-1.1-1.4-1.5c-2-1.8-5-1.9-7.2-0.1c-2,1.6-3.8,3.2-5.3,5.2c-1.1,1.5-1.1,2.3,0.1,3.6 C431.5,329.8,432.1,330.4,433.1,330.6z"></path> <path d="M311.2,178.3c0.1,2.6-1.5,4.6-2.3,6.9c-0.7,1.8-1.9,3.3-2.4,5.3c-0.5,2.1-2.4,3-4.5,2.4c-4-1.2-8-2.5-12-3.9 c-2.5-0.9-3.5-3.8-1.9-5.9c0.3-0.4,0.5-0.8,0.8-1.1c2.7-2.4,3-5.5,2.4-8.9c-0.2-1.5-0.5-2.9-0.8-4.4c-0.9-4.8,0.8-8.4,4-12 c3.1-3.4,7.5-3.6,11-5.6c0.8-0.5,1.6,0.1,2.2,0.6c2.2,2.4,4.5,4.9,6.5,7.4c1.4,1.7,0.9,3.6-0.9,5c-0.7,0.6-1.4,1.2-2,1.8 c-3,2.7-3,2.9-1.6,6.7C310.5,174.4,311.5,176.3,311.2,178.3z M304.7,157.4c-1.4,0.5-2.7,1.3-4,1.4c-1.6,0.1-2.4,0.8-3.2,2.1 c-1.6,2.6-1.9,5.1-0.8,8.1c2,5.2,1.7,10.3-1.3,15.2c2,1.3,4.3,1.9,6.6,2.2c0.5-1.1,0.9-2.1,1.4-2.9c1.8-3.3,2-6.4-0.3-9.6 c-1.9-2.6-1.8-5.3,0.1-8c1-1.4,1.8-2.9,3.5-3.7c1-0.5,1-1.5,0.3-2.3C306.2,159,305.5,158.3,304.7,157.4z"></path> <path d="M440.5,225.9c3.8-0.4,6,2,8.1,4.6c0.8,1,1.5,2.1,2.3,3c2.4,2.7,5.2,2.6,7.5-0.2c0.5-0.6,0.9-1.4,1.4-1.9 c1.2-1.3,2.7-1.2,3.8,0.1c0.2,0.3,0.5,0.5,0.6,0.9c1.7,3.6,2.9,7.4,3.2,11.5c0.1,0.9-0.2,1.6-0.9,2.4c-2.7,2.7-5.8,4.8-9.2,6.3 c-2.8,1.2-5.8,1.4-8.8,0.8c-2.2-0.4-3.7-2.1-4.6-4.2c-0.5-1.1-1.1-2.3-1.8-3.3c-0.8-1.2-2.1-1.4-3.2-0.4c-0.8,0.8-1.4,1.8-2.2,2.6 c-1.5,1.8-2.4,1.8-4.3,0.5c-0.3-0.2-0.5-0.5-0.8-0.6c-2-0.7-3.4-2-4-4c-0.7-2.3-1-4.9,0-7.1c1.7-3.8,3.5-7.6,7.7-9.7 C437,226.2,438.6,225.6,440.5,225.9z M434.3,243.4c1-0.8,1.9-1.5,2.8-2.1c4.3-2.9,6.5-1.9,8.9,1.6c0.3,0.4,0.4,0.8,0.6,1.2 c0.8,1.1,1.5,2.3,2.3,3.4c0.6,0.9,1.5,1.2,2.6,1.3c3.6,0.2,6.4-1.5,9-3.6c0.6-0.5,1.2-1.2,1-2.1c-0.4-1.4-0.1-3-1.2-4.2 c-1.9,0.4-3.3,1.8-5.1,2.2c-1.9,0.5-3.8,0.2-5.2-0.8c-1.7-1.1-3.7-2.3-4.3-4.6c-0.2-0.7-0.6-1.5-1.2-2c-1.1-1.1-2-2.8-3.8-2.8 c-1.6,0.1-3.5,0.4-4.7,1.8c-2.1,2.5-4.2,5.1-4.5,8.6C432.5,242,433.4,242.7,434.3,243.4z"></path> <path d="M256.3,316.4c-2.8,1.9-5.5,3.6-8,5.5c-2.2,1.7-5.1,0.8-6.7-1.7c-0.3-0.5-0.6-1-0.9-1.5c-1.9-3-4.8-3.9-7.8-2.1 c-2.3,1.4-4.7,1.6-7.2,1.5c-1.9,0-3.5-0.5-4.8-2.1c-1-1.3-2.6-2.2-3.9-3.3c-2-1.9-2.3-3.5-0.7-5.7c1.5-2.1,2.7-4.2,3.7-6.5 c0.3-0.7,0.7-1.4,1.2-2c2.1-2.4,4.4-2.3,6.2,0.3c2,2.9,6.7,4.1,9.7,2.4c2.6-1.5,5.2-1.6,7.9-0.6c2.1,0.8,3.8,2.3,5.1,3.9 c2.4,3.2,4.2,6.8,6,10.4C256.3,315.1,256.2,315.6,256.3,316.4z M221,308.8c2.6,4,5.9,4,9.5,2.6c0.4-0.2,0.9-0.3,1.3-0.5 c2.5-0.6,5-1,7.4,0c2.5,0.9,5,1.7,6,4.6c0.1,0.4,0.5,0.8,0.7,1c1.3-0.2,2-0.8,2.7-1.2c1-0.6,1.2-1.6,0.7-2.4 c-1.1-1.6-1.2-3.7-2.5-5.2c-0.6-0.8-1.3-1.5-2.2-2c-2.2-1.3-4.2-0.9-6.2,0.2c-3.4,1.8-6.8,1.5-10.3,0.3c-1.5-0.5-2.6-1.8-4-2.8 C223.1,305.2,222.1,307,221,308.8z"></path> <path d="M306.7,394.6c-1.9-0.4-4.1-0.7-6.4-1.2c-1.4-0.3-2.9-0.8-4.2-1.3c-2-0.8-2.5-1.9-1.5-3.7c0.9-1.7,1.7-3.5,2.5-5.2 c1.2-2.5,0.4-4.4-1.3-6.2c-0.6-0.7-1.4-1.2-2.1-1.8c-3.9-3.1-5.2-9.8-2.8-14.8c0.5-1.1,1.2-1.9,2.1-2.7c1-0.9,2.1-1.6,2.8-2.9 c0.7-1.4,4.2-2,5.2-0.7c2,2.4,5.1,2.9,7.3,4.8c0.3,0.3,0.8,0.5,1.1,0.8c1.7,1.4,1.9,2.2,0.9,4.1c-0.4,0.9-1.1,1.7-1.6,2.6 c-0.7,1.3-0.9,2.6,0.1,3.8c0.7,0.8,1.1,1.8,1.8,2.5c2.8,2.8,3.2,6.4,2.9,9.9c-0.2,3.4-1.5,6.7-3.1,9.7 C309.8,393.7,308.8,394.7,306.7,394.6z M305.1,361.9c-2.2-1-4-2-5.9-2.8c-1-0.5-2-0.4-2.8,0.6c-2.9,3.5-2.5,9.8,0.6,11.8 c0.8,0.5,1.3,1.3,2,1.9c3.5,3.2,4.4,7.1,2.6,11.5c-0.4,1-0.6,1.9-0.4,3c1.4,1.7,3.5,0.4,5,1.2c1.4-1,1-2.6,1.6-3.8 c1.6-3.3,1.2-6.4-1.1-9.3c-1.4-1.7-2.5-3.5-3.6-5.4c-0.6-1.1-0.7-2-0.2-3.3C303.5,365.5,304.3,363.8,305.1,361.9z"></path> <path d="M375.5,357.4c2.4,0.5,4.8,0.8,7,1.5c2.1,0.6,2.8,2.1,1.9,4.3c-0.5,1.3-1.1,2.5-1.1,3.9c0,1.3,0.1,2.5,1.5,3.1 c0.5,0.2,0.9,0.8,1.3,1.1c3.6,2.1,4.3,5.6,4.3,9.4c0.1,5-1.8,9.4-3.7,13.8c-0.9,2.1-1.2,2.2-3.4,1.7c-3.8-0.9-7.5-2-11.2-3 c-1.4-0.4-2-1.8-1.3-3.3c0.5-1.1,1.2-2.2,1.8-3.3c0.5-1,1.1-2,1.5-3.1c1-2.5,0.3-4.8-2-6.2c-1.5-0.9-2.7-2-3.9-3.3 c-1.2-1.3-1.6-2.7-1.6-4.4c0.1-2.7,0.8-5.2,1.8-7.6C369.7,359.1,372.2,357.5,375.5,357.4z M382.6,391c2.1-3.2,2.6-6.7,2.6-10.2 c0-2.4-1.1-4.2-3.4-5.6c-2.7-1.6-4.2-4-3.8-7.4c0.2-1.3,0-2.6,0-4c-1-0.1-1.8-0.2-2.6-0.4c-3-0.6-3.2-0.4-3.8,2.6 c-0.1,0.7-0.1,1.4-0.2,2c-0.2,1.6,0.4,2.9,1.7,3.8c0.5,0.3,0.9,0.6,1.4,1c4.6,3.3,5.5,7.2,2.9,12.2c-0.7,1.2-1.9,2.3-1.9,4 C377.9,390.1,380.3,390.3,382.6,391z"></path> <path d="M171.6,342.4c-3-4.1-4.9-8.5-7.5-12.6c0.7-1.1,1.7-1.6,2.6-2.2c6.3-4.2,12.9-7.7,19.7-10.9c0.4-0.2,0.8-0.4,1.2-0.6 c1-0.3,1.8-0.1,2.4,0.8c1.3,2.2,2.9,4.4,4,6.7c0.8,1.5,2.1,2.8,2.2,4.8C188.7,333.6,179.9,337.1,171.6,342.4z"></path> <path d="M394.5,416c3.2,8.8,4.7,18.1,7.8,27.1c-4.7,2-9.4,2.8-13.8,4.4c-1.4-1-1.5-2.5-2-3.8c-2.5-6.8-4.4-13.7-5.9-20.8 c-0.1-0.5-0.2-0.9-0.2-1.4c-0.2-1.2,0.3-2,1.5-2.3c2.6-0.8,5.2-1.8,7.8-2.5C391.2,416.5,392.7,415.5,394.5,416z"></path> <path d="M386,219.1c-7,7-12.3,14.8-19,21.2c-1.9-0.5-2.7-2-4-2.9c-2-1.6-4-3.4-5.8-5.4c-1.3-1.5-1.4-1.8-0.2-3.2 c2.5-3.1,5-6.2,7.6-9.3c3.1-3.6,6.4-7.1,10.2-10.5C378.5,212.4,382.1,215.6,386,219.1z"></path> <path d="M506.8,368.4c-3.5-0.7-6.7-2.2-10-3.6c-4.7-2-9.3-4.4-13.9-6.8c-2.1-1.1-2.1-1.3-1.3-3.5c1.4-3.9,3-7.6,5.1-11.4 c9,3.2,17,8.2,25.7,11.5C512.1,357.2,508.9,365,506.8,368.4z"></path> <path d="M446.5,119.2c-5.4,7.4-9.6,14.7-15,21.5c-4.1-2-8.4-4-12.5-6.1c-1.3-0.7-1.4-1.3-0.8-2.8c0.9-2.4,3-4,4.2-6.2 c1.9-3.4,4.1-6.6,6.3-9.8c0.9-1.3,1.6-2.8,3.1-3.6c0.7-0.4,1.5-0.8,2.2-0.3C437.9,114.6,442,116.7,446.5,119.2z"></path> <path d="M316.9,321.3c-6,6.3-12.7,11.7-18.7,17.5c-1.3-0.4-1.7-1.2-2.3-1.9c-2-2.6-3.9-5.3-6.3-7.7c-1.7-1.8-1.7-2.9-0.1-4.8 c1-1.1,2.1-2.1,3.2-3.1c3.8-3.4,7.7-6.8,11.4-10.4c2.5-2.4,3.2-3.8,5.9,0.5C312.4,314.8,314.7,318,316.9,321.3z"></path> <path d="M300.1,297.1c-1.6,2.3-3.7,3.2-5.6,4.5c-4.3,3-8.5,6-13,8.5c-1.2,0.7-2.4,1.4-3.3,2.4c-0.9,1-1.8,0.9-2.6,0 c-1.8-1.9-3.6-3.9-5.3-5.9c-1-1.2-2-2.5-3.1-3.8c1.1-1.9,2.5-3.1,4.5-4.2c6.6-3.6,13.5-6.6,19.8-10.8c0.3-0.2,0.6-0.2,1.2-0.4 C295,290.5,297.5,293.7,300.1,297.1z"></path> <path d="M404.8,127.5c-3.5-2-7-4-10.2-5.8c-0.4-1-0.1-1.5,0.2-2c1.9-3.3,2.7-7,4.1-10.5c1.5-3.9,2.8-8,4-12 c0.5-1.5,2.3-1.5,2.4-3.2c4.3,2.2,7.9,4.8,11.6,7.3c0.7,0.5,0.9,1.3,0.4,2.1c-3,5.2-5,11-7.7,16.3c-1,2-2,4.1-3,6.1 C406.3,126.5,405.9,127.1,404.8,127.5z"></path> <path d="M404.9,236.3c-0.5,1.2-1.5,1.9-2.4,2.6c-3.8,3-7.2,6.4-10.4,10c-2.1,2.4-4.9,3.8-7.5,5.5c-0.8,0.5-1.5,0.4-2.2-0.2 c-2.2-2-4.5-4-6.6-6c-1.3-1.2-1.3-2.4,0.2-3.5c4.6-3.4,8.3-7.9,12.5-11.8c1.6-1.5,3.5-2.6,5.3-3.8c0.9-0.6,2-0.9,2.9,0.1 C399.2,231.9,402.3,233.9,404.9,236.3z"></path> <path d="M415.6,409.9c2,2.5,3.8,5,4.7,7.8c1.8,5.6,3.7,11.1,6.2,16.4c0.2,0.5,0.5,1,0.2,1.9c-2.1,0.6-4.5,1.2-6.8,1.8 c-0.8,0.2-1.6,0.3-2.3,0.6c-2.5,0.7-3.1,0.6-4.5-1.7c-1.9-2.9-3.3-6.1-4.2-9.4c-1-3.5-2.5-6.9-3.8-10.3c-0.1-0.3-0.4-0.6-0.5-0.9 c-0.8-1.9-0.4-2.8,1.5-3.4C409.1,411.8,412.2,410.9,415.6,409.9z"></path> <path d="M523.2,331.5c-1,2.2-2,4.3-3.1,6.5c-0.3,0.6-0.7,1.2-1,1.8c-1.2,2.9-1.5,3-4.6,2.6c-3.3-0.4-6.5-1.5-9.5-2.8 c-3.5-1.5-7-2.7-10.7-3.8c-0.5-0.2-1.1-0.3-1.6-0.5c-1-0.5-1.6-1.4-1-2.5c1.2-2.8,2.5-5.6,3.7-8.5c0.5-1.2,1.5-1.2,2.6-1.1 c3.3,0.5,6.5,1,9.6,2.4c4,1.8,8.2,3.4,12.6,4.4C521.2,330.3,522.3,330.5,523.2,331.5z"></path> <path d="M184.2,364.6c-1.8-3.2-3.5-6.4-5.2-9.4c-0.7-1.2-0.1-2.3,0.7-3.1c1.6-1.6,3.2-3.2,5.1-4.5c3.6-2.5,7.5-4.4,10.9-7.1 c0.9-0.7,1.8-1.5,2.7-2.1c1.6-1.2,2.6-1,3.7,0.7c1.4,2.4,2.7,4.8,4,7.2c0.9,1.6,0.8,1.9-0.6,3.3c-2.3,2.2-4.6,4.4-7.4,6 c-3.9,2.2-7.6,4.6-11.1,7.5C186.3,363.7,185.5,364.4,184.2,364.6z"></path> <path d="M293.4,100c5.1-0.7,9.8-1.3,14.5-2c1,2.4,1.2,4.8,1.6,7.1c0.9,5,1.6,10,2.3,14.9c0.4,2.4,0.3,2.4-2.1,2.9 c-3.1,0.6-6.2,1.3-9.4,2c-0.6,0.1-1.1,0.3-2-0.2c-1-3.8-1.4-8-2.2-12.1C295.2,108.5,294.4,104.5,293.4,100z"></path> <path d="M297.1,215.4c4.6-2.5,8.7-4.7,13-7.1c4.7,6.7,8.1,14.1,12.4,21.4c-3.9,2.5-7.7,5-11.8,7.6c-2.5-3.5-4.4-7.3-6.6-10.8 C301.9,223,299.6,219.4,297.1,215.4z"></path> <path d="M374.5,340.5c-4.7-7.6-9-15.2-12.7-23.3c3-2.3,6-4.6,9.5-6.6c3.4,2.7,5,6.9,7.7,10.2c2.7,3.4,5.1,7,7.5,11 C382.4,334.5,378.8,337.8,374.5,340.5z"></path> <path d="M301.8,441.9c-4.6-0.6-9.2-1.3-13.5-1.9c-0.9-0.9-0.6-1.7-0.4-2.5c1.4-7.3,2.9-14.6,4.4-21.9c0-0.2,0.2-0.4,0.5-0.8 c4.4,0.3,8.6,2,13,2.6C306.1,420.5,303.3,437.7,301.8,441.9z"></path> <path d="M189,230.4c-9-1.6-17.3-3.9-25.9-6.6c1.5-4.8,4-9,5.4-13.7c4.7,1.4,8.9,2.8,13,4.7c2.5,1.2,5.3,1.9,8,2.9 c3.6,1.3,3.8,1.6,2.5,5.2C191.1,225.3,190.1,227.7,189,230.4z"></path> <path d="M497.1,232.6c0.6-0.8,1.5-1.1,2.4-1.2c6.3-1,12.4-2.9,18.7-4.1c1.2-0.2,2.5-0.2,4-0.4c0.7,4.9,2.7,9.3,3.2,14.2 c-8.8,1.3-17.4,2.7-26,2.6C498,240.7,497,235.5,497.1,232.6z"></path> <path d="M494,217.1c-0.7-3.2-1.3-6.2-1.9-9.2c-0.4-2.1-0.3-2.6,1.6-3.6c2.8-1.5,5.7-2.9,8.6-4.3c2.7-1.2,5.5-2.3,8.3-3.4 c2.8-1.1,3.6-0.7,4.5,2.2c1.1,3.6,1.9,7.3,2.8,10.9c-0.7,1.4-2.1,1.6-3.2,1.9c-5.3,1.4-10.5,3.1-15.6,5.3 C497.5,217.6,495.9,217.8,494,217.1z"></path> <path d="M175.3,194.2c1.7-3.9,3.2-7.6,4.9-11.2c1-2.1,2-2.3,4-1.3c5.5,2.9,10.5,6.4,15.6,10c2.1,1.5,2.2,2,1.2,4.6 c-1,2.8-2.1,5.6-3.1,8.3c-1.9,0.8-3.5,0-4.9-0.9c-4.7-2.8-9.6-5.4-14.6-7.4C177.3,195.9,176.3,195.3,175.3,194.2z"></path> <path d="M400.2,321.5c-1.9-1.1-2.8-2.8-4-4.2c-3-3.7-6.1-7.4-9.6-10.7c-1.1-1.1-2.1-2.4-2-4.4c2.7-1.9,5.5-3.8,8.3-5.8 c1.3-0.9,2.4-0.5,3.4,0.4c2.2,1.9,4.4,3.7,6.5,5.6c2.6,2.4,5,5,7.5,7.5c1.5,1.6,1.5,2.6-0.2,4C406.9,316.5,403.6,319,400.2,321.5z "></path> <path d="M270.5,241c1-2.3,5.9-8.7,8.5-11.2c6.5,4.5,13,9,19.8,13c-1.6,3.6-6,7.7-10.7,9.9C285.2,251.3,272.9,243.3,270.5,241z"></path> <path d="M253.5,424.8c3.5-6.3,8.7-11,12.3-16.8c5.2,0.4,10.6,2.5,13.9,5.5c-4.8,6.3-9.7,12.5-14.1,19 C262,431.1,255.3,426.9,253.5,424.8z"></path> <path d="M285.7,126.5c-4.4,2.8-8.7,4.8-13.6,5.2c-1-0.7-1.8-1.6-2.4-2.8c-1.5-2.6-3.5-4.8-5.4-7c-1.6-1.8-2.8-3.9-4.1-5.9 c-0.9-1.4-0.8-1.9,0.6-2.8c3.4-2.1,6.6-4.4,10.6-6.3C276,113.5,280.6,119.9,285.7,126.5z"></path> <g> <polygon class="st4" points="334.4,64.2 334.5,63.3 334.6,62.4 335,61.6 335.2,60.8 335.5,60 335.9,59.2 336.4,58.5 337,57.9 337.7,57.2 338.5,56.7 339.3,56.3 340.2,56 341.2,55.9 342.1,55.8 343.1,55.9 344,56 344.9,56.2 345.8,56.4 346.5,56.9 347.2,57.2 348,57.7 348.7,58.2 349.4,58.8 350,59.5 350.6,60.2 350.9,61 351.2,61.9 351.5,62.8 351.5,63.7 351.4,64.6 351.1,65.5 350.7,66.3 350.2,67.1 349.7,67.8 349.3,68.6 348.7,69.2 348.1,69.9 347.4,70.6 346.6,71 345.7,71.4 344.8,71.5 343.9,71.3 342.9,71.2 342.2,70.9 341.5,70.7 340.7,70.6 339.9,70.6 339,70.5 338.2,70.5 337.4,70.2 336.8,69.7 336.3,68.9 335.7,68.3 335.3,67.5 335,66.7 334.8,65.9 334.6,65 "></polygon> </g> <g> <polygon class="st4" points="566.5,276.2 566.6,275.3 566.7,274.3 566.7,273.4 567.1,272.5 567.3,271.6 567.6,270.7 568.1,269.9 568.5,269 569.1,268.3 569.5,267.5 570.3,267 571.1,266.6 572,266.4 572.9,266.1 573.7,265.8 574.6,265.7 575.4,266 576.1,266.4 576.8,266.8 577.4,267.4 578,268 578.6,268.7 579.1,269.6 579.5,270.4 579.8,271.3 580,272.2 580.3,273.1 580.4,274 580.2,274.9 580.2,275.9 580.1,276.8 579.9,277.7 579.7,278.6 579.3,279.4 579,280.3 578.4,281 577.8,281.7 577.3,282.5 576.5,283 575.8,283.6 575,284.1 574.2,284.4 573.3,284.6 572.4,284.7 571.5,284.8 570.6,284.5 569.7,284.5 568.8,284.2 568.2,283.4 567.7,282.6 567.3,281.7 567,280.9 566.5,280 566.5,279 566.5,278.1 566.5,277.1 "></polygon> </g> <g> <polygon class="st4" points="104.7,276.2 103.8,276.1 102.8,276 101.8,275.8 101,275.5 100.1,275.1 99.3,274.5 98.6,273.7 97.9,273 97.7,272 97.7,271.1 97.3,270.4 97,269.7 96.8,268.8 96.5,267.9 96.6,267 96.8,266.1 97.2,265.3 97.7,264.5 98.3,263.9 98.9,263.2 99.7,262.7 100.4,262.2 101.2,261.8 102.1,261.6 103,261.5 103.9,261.5 104.8,261.4 105.7,261.5 106.5,261.6 107.4,261.8 108.3,262.1 109.1,262.6 109.7,263.3 110.3,264.1 110.7,264.8 111,265.6 111.3,266.5 111.5,267.3 111.6,268.2 111.5,269.1 111.6,270 111.4,270.8 111.3,271.7 111.1,272.6 110.8,273.4 110.3,274.1 109.6,274.9 108.8,275.5 107.8,275.8 106.8,276 105.8,276 "></polygon> </g> <path class="st5" d="M233.9,69.8c3.2-0.1,6.7,2.3,7.9,6.1c0.5,1.5-0.2,3.1-0.9,4.3c-1.4,2.6-2.9,5.2-6.5,5.2 c-3.7,0.1-7-2.8-6.8-6.5c0.1-1.6,0.4-3.2,0.8-4.7C229.1,71.1,230.8,69.8,233.9,69.8z"></path> <g> <polygon class="st4" points="159,86.6 160,86.7 160.9,86.9 161.8,87.1 162.7,87.3 163.6,87.6 164.4,88.1 165.3,88.5 166.1,89.1 166.7,89.7 167.2,90.4 167.5,91.2 167.8,92 167.9,92.9 167.8,93.8 167.7,94.6 167.3,95.4 166.9,96.2 166.5,97 165.9,97.8 165.4,98.5 164.9,99.2 164.2,99.8 163.4,100.3 162.5,100.6 161.7,100.8 160.8,101 159.9,101.1 159,101 158.1,101 157.2,100.9 156.2,100.7 155.3,100.3 154.6,99.7 154,99 153.7,98 153.6,97.1 153.6,96.2 153.6,95.3 153.6,94.4 153.7,93.5 154,92.7 154.3,91.8 154.7,91 155.1,90.2 155.5,89.5 156,88.8 156.7,88.1 157.2,87.4 158,86.8 "></polygon> </g> <g> <polygon class="st3" points="168.6,26.4 169.6,26.5 170.5,26.6 171.4,26.9 172.4,27.1 173.3,27.4 174.1,27.8 175,28.2 175.7,28.8 176.3,29.4 176.8,30.1 177.2,30.9 177.4,31.8 177.6,32.6 177.5,33.5 177.2,34.3 176.9,35.1 176.5,36 176.1,36.8 175.6,37.5 175,38.2 174.5,38.9 173.8,39.5 173,39.9 172.2,40.3 171.3,40.5 170.4,40.7 169.5,40.8 168.6,40.8 167.7,40.7 166.8,40.5 165.9,40.3 165,40 164.2,39.5 163.7,38.6 163.4,37.8 163.2,36.8 163.2,35.9 163.2,35 163.3,34.1 163.4,33.2 163.6,32.4 163.9,31.5 164.3,30.8 164.7,30 165.1,29.2 165.7,28.5 166.3,27.8 166.9,27.2 167.7,26.6 "></polygon> </g> <g> <polygon class="st3" points="318.3,20.5 319.3,20.6 320.2,20.7 321.1,21 322,21.2 322.9,21.5 323.8,21.9 324.6,22.4 325.4,22.9 326,23.5 326.5,24.2 326.9,25 327.1,25.9 327.2,26.7 327.2,27.6 327,28.5 326.6,29.3 326.2,30.1 325.7,30.9 325.3,31.7 324.8,32.4 324.1,33 323.5,33.7 322.7,34.1 321.8,34.4 321,34.7 320.1,34.8 319.2,35 318.3,34.9 317.4,34.8 316.5,34.7 315.6,34.5 314.7,34.1 313.9,33.6 313.4,32.8 313.1,31.9 312.9,30.9 312.8,30 312.9,29.2 313,28.3 313.1,27.4 313.4,26.5 313.6,25.7 314,24.9 314.4,24.1 314.8,23.3 315.4,22.6 315.9,21.9 316.6,21.3 317.3,20.6 "></polygon> </g> <g> <polygon class="st3" points="521,29.8 521.9,29.9 522.8,30.1 523.8,30.2 524.7,30.6 525.6,30.9 526.4,31.3 527.3,31.7 528.1,32.2 528.7,32.8 529.1,33.6 529.5,34.4 529.7,35.2 529.9,36.1 529.8,36.9 529.7,37.8 529.3,38.6 528.9,39.4 528.5,40.3 527.9,41 527.4,41.7 526.8,42.4 526.1,43 525.4,43.5 524.5,43.8 523.6,44 522.8,44.2 521.9,44.3 521,44.2 520,44.2 519.2,44 518.2,43.8 517.3,43.5 516.6,42.9 516,42.1 515.7,41.2 515.6,40.3 515.5,39.4 515.5,38.5 515.6,37.6 515.8,36.7 516,35.9 516.3,35 516.6,34.2 517,33.4 517.5,32.7 518,32 518.6,31.3 519.2,30.7 520,30 "></polygon> </g> <g> <polygon class="st4" points="639.6,242.2 640.5,242.3 641.4,242.5 642.4,242.6 643.3,243 644.2,243.2 645,243.6 645.9,244.1 646.6,244.7 647.3,245.2 647.7,246 648.1,246.8 648.3,247.6 648.5,248.5 648.4,249.4 648.2,250.2 647.8,251 647.4,251.8 647,252.6 646.6,253.4 646,254.1 645.4,254.8 644.7,255.4 643.9,255.9 643.1,256.3 642.2,256.4 641.3,256.5 640.4,256.7 639.5,256.6 638.6,256.6 637.7,256.4 636.8,256.2 635.9,255.9 635.1,255.4 634.7,254.5 634.2,253.6 634.2,252.7 634.2,251.8 634.1,250.9 634.2,250 634.3,249.1 634.5,248.2 634.9,247.4 635.2,246.6 635.6,245.8 636.1,245.1 636.6,244.4 637.2,243.7 637.8,243 638.6,242.4 "></polygon> </g> <g> <polygon class="st4" points="645.4,380.1 646.4,380.1 647.3,380.3 648.3,380.4 649.2,380.8 650,381.1 650.9,381.5 651.8,381.9 652.5,382.4 653.1,383.1 653.6,383.8 653.9,384.6 654.2,385.4 654.4,386.3 654.4,387.2 654,388 653.8,388.9 653.3,389.6 652.9,390.4 652.4,391.2 651.9,392 651.3,392.6 650.6,393.2 649.8,393.6 649,394 648.1,394.2 647.2,394.5 646.3,394.4 645.4,394.5 644.5,394.4 643.6,394.2 642.7,394.1 641.8,393.6 641,393.1 640.5,392.3 640.2,391.4 640,390.5 640,389.6 640,388.7 640.1,387.8 640.2,386.9 640.5,386.1 640.7,385.2 641.1,384.4 641.5,383.7 642,382.9 642.5,382.2 643,381.4 643.7,380.8 644.5,380.3 "></polygon> </g> <g> <polygon class="st4" points="56.4,220.2 57.4,220.3 58.3,220.4 59.2,220.6 60.1,220.9 61,221.2 61.9,221.6 62.7,222.1 63.5,222.6 64.1,223.2 64.7,223.9 64.9,224.7 65.2,225.6 65.3,226.4 65.3,227.3 65.1,228.1 64.7,228.9 64.3,229.8 63.9,230.6 63.4,231.4 62.9,232.1 62.3,232.8 61.5,233.3 60.8,233.9 60,234.1 59.1,234.4 58.2,234.5 57.3,234.6 56.4,234.6 55.5,234.5 54.6,234.4 53.7,234.1 52.8,233.8 52,233.3 51.5,232.4 51.1,231.6 51,230.6 51,229.7 50.9,228.8 51.1,227.9 51.3,227.1 51.4,226.2 51.7,225.4 52,224.5 52.5,223.8 53,223 53.5,222.3 54,221.6 54.7,221 55.5,220.3 "></polygon> </g> <g> <polygon class="st4" points="37.4,393.4 38.4,393.4 39.3,393.5 40.2,393.9 41.1,394.1 42,394.4 42.9,394.8 43.7,395.2 44.5,395.8 45.1,396.4 45.7,397.1 46,397.9 46.1,398.8 46.3,399.6 46.3,400.5 46,401.3 45.7,402.2 45.3,403 44.9,403.8 44.3,404.5 43.8,405.2 43.2,405.9 42.6,406.5 41.8,407 40.9,407.3 40.1,407.6 39.2,407.7 38.3,407.8 37.4,407.8 36.5,407.7 35.6,407.5 34.6,407.4 33.8,407 33,406.5 32.5,405.6 32.1,404.8 32,403.8 31.9,402.9 32,402 32.1,401.1 32.2,400.2 32.3,399.4 32.7,398.6 33,397.7 33.5,396.9 33.9,396.2 34.4,395.4 35.1,394.8 35.7,394.2 36.4,393.5 "></polygon> </g> <g> <polygon class="st3" points="601.7,120.5 602.6,120.6 603.6,120.8 604.5,120.9 605.4,121.1 606.3,121.4 607.1,121.9 608,122.3 608.8,122.8 609.4,123.5 609.9,124.2 610.2,125 610.5,125.8 610.6,126.7 610.6,127.6 610.3,128.4 610,129.3 609.6,130.1 609.1,130.8 608.7,131.6 608.1,132.4 607.5,133 606.9,133.6 606.1,134.1 605.3,134.5 604.4,134.6 603.5,134.8 602.6,134.9 601.7,134.9 600.8,134.8 599.9,134.6 598.9,134.4 598.1,134.1 597.2,133.6 596.7,132.8 596.4,131.8 596.4,130.9 596.2,130 596.3,129.1 596.3,128.2 596.5,127.3 596.6,126.5 597,125.6 597.3,124.8 597.8,124 598.2,123.3 598.8,122.6 599.3,121.8 600,121.3 600.7,120.6 "></polygon> </g> <g> <polygon class="st3" points="607.7,314.9 608.7,315 609.6,315.1 610.6,315.3 611.5,315.5 612.3,315.9 613.2,316.3 614,316.8 614.8,317.3 615.4,317.9 615.9,318.6 616.3,319.4 616.5,320.2 616.6,321.1 616.7,322 616.4,322.8 616,323.6 615.6,324.4 615.2,325.3 614.7,326 614.2,326.8 613.6,327.4 612.9,328 612.1,328.5 611.3,328.8 610.4,329 609.5,329.2 608.6,329.3 607.7,329.2 606.8,329.2 605.9,329 605,328.9 604.1,328.5 603.3,327.9 602.8,327.1 602.4,326.2 602.3,325.3 602.3,324.4 602.3,323.5 602.4,322.6 602.5,321.7 602.7,320.9 603,320 603.4,319.3 603.7,318.4 604.3,317.7 604.8,317 605.4,316.3 605.9,315.6 606.8,315 "></polygon> </g> <g> <polygon class="st3" points="575.4,479.4 576.3,479.5 577.2,479.8 578.1,480 579.1,480.2 580,480.5 580.8,480.9 581.7,481.3 582.4,481.9 583.1,482.5 583.5,483.2 583.9,484 584.2,484.9 584.2,485.7 584.2,486.6 583.9,487.4 583.6,488.3 583.2,489.1 582.8,489.9 582.3,490.6 581.8,491.4 581.1,492 580.5,492.7 579.7,493.1 578.9,493.4 578,493.7 577.1,493.9 576.2,493.9 575.3,493.9 574.4,493.8 573.5,493.7 572.6,493.5 571.7,493.1 571,492.5 570.4,491.8 570.1,490.9 570,489.9 569.9,489 569.9,488.1 569.9,487.2 570.2,486.4 570.4,485.5 570.6,484.7 571,483.8 571.4,483.1 571.9,482.4 572.4,481.6 573,481 573.5,480.2 574.4,479.6 "></polygon> </g> <g> <polygon class="st3" points="374.9,499.4 375.8,499.5 376.8,499.6 377.7,499.8 378.6,500.1 379.5,500.5 380.3,500.8 381.2,501.2 382,501.7 382.6,502.4 383,503.1 383.4,503.9 383.7,504.8 383.8,505.6 383.8,506.5 383.5,507.3 383.2,508.2 382.8,509 382.4,509.8 381.9,510.6 381.3,511.3 380.7,511.9 380,512.5 379.2,513 378.4,513.3 377.6,513.6 376.7,513.7 375.8,513.8 374.9,513.7 374,513.8 373.1,513.6 372.2,513.3 371.2,513 370.5,512.5 369.9,511.7 369.6,510.8 369.5,509.8 369.4,508.9 369.4,508 369.5,507.1 369.7,506.3 369.9,505.4 370.2,504.6 370.5,503.8 370.9,503 371.4,502.2 371.9,501.5 372.5,500.8 373.1,500.2 373.9,499.6 "></polygon> </g> <g> <polygon class="st3" points="178.3,491.7 179.2,491.8 180.2,491.9 181.1,492.2 182,492.4 182.9,492.7 183.8,493.1 184.6,493.6 185.4,494.1 186,494.7 186.4,495.5 186.8,496.3 187,497.1 187.2,497.9 187.2,498.8 186.9,499.6 186.5,500.5 186.2,501.3 185.8,502.1 185.3,502.9 184.8,503.6 184.1,504.2 183.4,504.8 182.7,505.3 181.8,505.7 181,505.9 180.1,506 179.2,506.1 178.3,506 177.4,506 176.5,505.8 175.5,505.6 174.6,505.3 173.8,504.8 173.4,503.9 173,503.1 172.8,502.1 172.9,501.2 172.9,500.4 172.9,499.5 173,498.6 173.3,497.7 173.6,496.9 173.9,496.1 174.3,495.3 174.8,494.5 175.4,493.9 175.9,493.1 176.5,492.5 177.3,491.9 "></polygon> </g> <g> <polygon class="st3" points="69.5,320.9 70.5,321 71.4,321.2 72.3,321.4 73.3,321.5 74.2,321.9 75,322.4 75.8,322.8 76.6,323.3 77.2,323.9 77.7,324.6 78,325.5 78.3,326.3 78.5,327.1 78.5,328 78.2,328.9 77.8,329.7 77.5,330.5 77,331.3 76.5,332 76,332.8 75.4,333.5 74.7,334.1 73.9,334.5 73.1,334.8 72.2,335.1 71.3,335.3 70.4,335.4 69.5,335.4 68.6,335.2 67.7,335.1 66.8,334.9 65.9,334.6 65.1,334 64.6,333.2 64.3,332.3 64.2,331.3 64.1,330.4 64.1,329.5 64.2,328.7 64.3,327.8 64.5,326.9 64.9,326.1 65.1,325.2 65.6,324.5 66.1,323.8 66.6,323 67.2,322.3 67.8,321.7 68.6,321.1 "></polygon> </g> <g> <polygon class="st3" points="52.1,160.4 53,160.5 54,160.7 54.9,160.8 55.8,161.1 56.7,161.4 57.6,161.8 58.3,162.3 59.1,162.8 59.8,163.4 60.3,164.1 60.6,164.9 60.8,165.8 61,166.6 60.9,167.5 60.8,168.4 60.3,169.1 60,170 59.6,170.8 59.1,171.6 58.5,172.2 57.9,172.9 57.2,173.6 56.4,173.9 55.6,174.3 54.8,174.6 53.9,174.8 53,174.9 52.1,174.8 51.2,174.6 50.3,174.6 49.3,174.4 48.4,174.1 47.6,173.5 47.2,172.7 46.8,171.8 46.7,170.8 46.6,169.9 46.6,169 46.7,168.1 46.8,167.3 47.1,166.4 47.4,165.6 47.8,164.8 48.2,164 48.6,163.2 49.1,162.5 49.8,161.9 50.3,161.1 51.1,160.5 "></polygon> </g> <g> <polygon class="st4" points="523.2,456.5 523.3,455.6 523.3,454.7 523.6,453.8 523.7,453 524.1,452.3 524.6,451.7 525.4,451.3 526.1,450.8 526.8,450.3 527.5,449.8 528.3,449.4 529,449 529.8,448.5 530.7,448.3 531.6,448.3 532.5,448.5 533.3,448.8 534.1,449.2 534.8,449.7 535.3,450.5 535.7,451.3 536.1,452.1 536.4,452.9 536.6,453.8 536.8,454.7 536.7,455.6 536.6,456.5 536.3,457.3 535.8,458 535.3,458.8 534.8,459.5 534.4,460.3 533.8,460.9 533.2,461.6 532.6,462.3 531.9,462.9 531.1,463.4 530.2,463.6 529.4,463.7 528.5,463.8 527.6,463.7 526.7,463.4 525.9,463 525.2,462.4 524.6,461.7 524.1,460.9 523.7,460.1 523.4,459.2 523.3,458.3 523.2,457.4 "></polygon> </g> <g> <polygon class="st4" points="544.8,93.5 544.8,94.3 544.8,95.2 544.6,96 544.3,96.8 544.1,97.7 543.9,98.5 543.5,99.3 543,100 542.4,100.6 541.6,101.1 540.8,101.4 540,101.6 539.1,101.6 538.2,101.6 537.3,101.6 536.5,101.2 535.7,101 535,100.5 534.2,100 533.7,99.3 533.2,98.5 532.9,97.7 532.6,96.9 532.5,96 532.4,95.2 532.2,94.3 532.3,93.4 532.4,92.5 532.5,91.7 532.8,90.8 533.1,90 533.5,89.2 534.1,88.5 534.8,88 535.6,87.6 536.4,87.2 537.3,87 538.3,86.9 539.2,87 540.1,87.2 541,87.4 541.9,87.7 542.6,88.2 543.2,88.7 543.8,89.3 544.1,90.1 544.4,90.9 544.6,91.8 544.8,92.6 "></polygon> </g> <path class="st5" d="M529.9,395.1c0.3,4.4-1.7,6.8-4.5,8.7c-3,2.1-7.1,0-8.3-3.5c-1.2-3.8,1.5-8.2,5.6-9.6 c2.1-0.8,5.4,0.4,6.7,2.3C530.2,393.9,529.9,394.9,529.9,395.1z"></path> <g> <polygon class="st4" points="349.2,479.8 349.1,480.7 349,481.6 348.7,482.5 348.1,483.3 347.6,484.1 347.1,484.8 346.6,485.5 345.9,486.1 345.3,486.7 344.6,487.1 343.9,487.7 343,488.1 342.1,488.4 341.2,488.4 340.2,488.1 339.4,487.6 338.7,487 338,486.3 337.4,485.6 336.8,484.8 336.6,483.8 336.3,482.9 336.3,482.1 336.4,481.2 336.4,480.4 336.5,479.5 336.5,478.7 336.6,477.8 336.8,477 337.1,476.2 337.7,475.5 338.4,475 339,474.3 339.5,473.6 340.5,473.2 341.5,473.5 342.4,473.7 343.2,474 344.1,474.4 344.9,474.9 345.6,475.4 346.4,476 347.1,476.6 347.8,477.2 348.5,477.9 349,478.8 "></polygon> </g> <path class="st5" d="M555.1,178.1c-1.3,0.1-2.5-0.3-3.6-1.4c-3.6-3.6-3.9-5.7-1-9.9c0.3-0.5,0.7-0.9,1-1.4 c0.7-1.2,1.9-1.5,2.9-1.1c2,0.7,4,1.6,5.9,2.6c0.8,0.4,1.3,1.2,1.6,2.2C562.8,172.1,560.1,178.6,555.1,178.1z"></path> <path class="st5" d="M159.5,416.6c-0.7,0.1-1.2-0.3-1.8-0.8c-3.8-3-3.5-8.3-1.5-11.5c1.4-2.4,3.6-2.7,6.2-1.6 c2.8,1.3,3.9,3.8,5,6.3c0.6,1.4-1.1,5.1-2.6,6.1C164.1,415.5,160.3,416.6,159.5,416.6z"></path> <path class="st5" d="M485.8,104.9c-2.2,1-4.1,1.1-6,0.5c-0.7-0.3-0.6-1.2-1.1-1.7c-1.5-1.1-2.2-2.7-2-4.5c0.2-2.1,0.4-4.3,2-6 c1.3-1.4,2.6-2.1,4.5-1.4c1.1,0.4,2.2,0.6,3.2,1.2c2.3,1.5,2.9,4.9,1.6,7.9C487.1,102.3,486,103.4,485.8,104.9z"></path> <g> <polygon class="st4" points="165.2,467.8 164.3,467.7 163.3,467.6 162.4,467.4 161.6,466.8 160.8,466.3 160.4,465.5 160,464.6 159.6,463.8 159.6,462.8 159.5,461.9 159.6,461 159.6,460.1 159.9,459.3 160,458.4 160.2,457.5 160.8,456.7 161.5,456.1 162.4,455.7 163.3,455.5 164.2,455.4 165.1,455.3 166,455.3 166.9,455.3 167.7,455.2 168.6,455.2 169.4,455.5 170,456 170.6,456.7 171,457.5 171.2,458.3 171.5,459.2 171.4,460.1 171.4,461.1 171.2,462 171,462.9 170.6,463.8 170.1,464.6 169.7,465.5 169.2,466.2 168.6,466.9 167.9,467.4 167,467.7 166.1,467.8 "></polygon> </g> <path class="st5" d="M478.2,475.7c-0.5,2.6-2.2,4.8-4.4,6.5c-0.8,0.6-2,0.4-3,0c-3.5-1.3-5.7-6.1-4.4-9.6c0.4-1,1-1.8,2.1-2 c0.7-0.1,1.3-0.4,1.9-0.7C474.3,468.1,478.2,471.6,478.2,475.7z"></path> <path class="st5" d="M165.2,147.2c0,3.9-1.4,6-4.3,6.9c-2.1,0.6-3.1,0.2-4.6-1.6c-2.7-3.3-2.4-6.9-0.6-9.4c1.2-1.8,1.9-1.9,4-1.6 c2.6,0.4,3.9,2.3,5.3,4C165.4,146.1,165.2,147.1,165.2,147.2z"></path> <path class="st5" d="M210.6,454.6c1.9,0.1,3.2,0.6,4.5,1.2c4.1,2,3.4,6.4,1.4,8.6c-0.4,0.5-1,0.9-1.5,1.4 c-1.7,1.5-3.5,1.4-5.4,0.4s-2.9-2.8-2.8-4.7c0.1-1.8,0.6-3.6,1.6-5.2C209,455.2,209.9,454.6,210.6,454.6z"></path> </g> </g> <g id="PP_FARBE"> </g> <g id="PAP"> </g> <g id="NAZAR_BG"> </g> <g id="NAZAR_COLORS"> </g> <g id="NAZAR"> </g> <g id="WIKIQUOTE_BG"> </g> <g id="WIKIQUOTE_FARBE"> </g> <g id="WIKIQUOTE"> </g> <g id="WIKIVOYAGE_BG"> </g> <g id="WIKIVOYAGE_FARBE_1_"> </g> <g id="WIKIVOYAGE_1_"> </g> <g id="HAMSA_BG"> </g> <g id="HAMSA_FARBE"> </g> <g id="HAMSA"> </g> <g id="WWW_BG"> </g> <g id="WWW_FARBE_1_"> </g> <g id="WWW"> </g> <g id="FOTO_BG"> </g> <g id="FOTO_FARBE_1_"> </g> <g id="FOTO_1_"> </g> <g id="HUMAN_FIGURE_BG"> </g> <g id="HUMAN_FIGURE_FARBE"> </g> <g id="HUMAN_FIGURE"> </g> <g id="GLASSES_BG"> </g> <g id="GLASSES_FARBE"> </g> <g id="GLASSES"> </g> <g id="KINTSUGO_BG"> </g> <g id="KINTSUGI_FARBE"> </g> <g id="KINTSUGI"> </g> <g id="RANGOLI_BG"> </g> <g id="RANGOLI_FARBE"> </g> <g id="RANGOLI"> </g> <g id="HENNA_BG"> </g> <g id="HENNA_FARBE"> </g> <g id="HENNA"> </g> <g id="BASKETBALL_BG"> </g> <g id="BASKETBALL_FARBE_1_"> </g> <g id="BASKETBALL_FARBE"> </g> <g id="BASKETBALL"> <g id="Ebene_42"> </g> </g> <g id="RUG_BG"> </g> <g id="RUG_FARBE"> </g> <g id="RUG"> </g> <g id="KAABA_BG"> </g> <g id="KAABA_FARBE"> </g> <g id="KAABA"> </g> <g id="Wikinews_BG"> </g> <g id="WIKINEWS_FARBE"> </g> <g id="WIKINEWS"> </g> <g id="WIKIMEDIA_FOUNDATION_BG"> </g> <g id="WIKIMEDIA_FARBE"> </g> <g id="WIKIMEDIA"> </g> <g id="WIKIMEDIA_COMMONS"> </g> <g id="COMMONS_FARBE"> </g> <g id="COMMONS"> </g> <g id="BIWA_BG"> </g> <g id="BIWA_FARBE"> </g> <g id="BIWA"> </g> <g id="_x2B__BG"> </g> <g id="_x2B__FARBE"> </g> <g id="_x2B_"> </g> <g id="IBIS_OF_THOTH_BG"> </g> <g id="IBIS_OF_THOTH_FARBEN"> </g> <g id="IBIS_OF_THOTH"> </g> <g id="SERPENT_BG"> </g> <g id="SERPENT_FARBE"> </g> <g id="SERPENT"> </g> <g id="TREE_BG_1_"> </g> <g id="TREE_FARBEN"> </g> <g id="TREE_1_"> </g> <g id="BAPHO_BG_1_"> </g> <g id="BAPHO_FARBE"> </g> <g id="BAPHO"> </g> <g id="SALAM_BG"> </g> <g id="SALAM_FARBE"> </g> <g id="SALAM"> </g> <g id="PAINTING_EASLE_BG"> </g> <g id="PAINTING_EASLE_FARBE"> </g> <g id="PAINTING_EASLE_FARBEN"> </g> <g id="WHEAT_BG"> </g> <g id="WHEAT_FARBE"> </g> <g id="WHEAT"> </g> <g id="SMILE_BG"> </g> <g id="SMILE_FARBE"> </g> <g id="SMILE"> </g> <g id="WIFI_BG"> </g> <g id="WIFI_FARBE"> </g> <g id="WIFI"> </g> <g id="WIND_BG"> </g> <g id="WIND_FARBEN"> </g> <g id="WIND"> </g> <g id="CHIC_x40_S_BG"> </g> <g id="CHIC_x40_S_FARBEN"> </g> <g id="CHIC_x40_S_1_"> </g> <g id="ESC_BG"> </g> <g id="ESC_FARBE"> </g> <g id="ESC"> </g> <g id="SPRAYCAN_BG"> </g> <g id="SPRAYCAN_FARBE"> </g> <g id="SPRAYCAN_1_"> </g> <g id="PACHAMAMA_BG"> </g> <g id="PACHAMAMA_FARBEN"> </g> <g id="PACHAMAMA"> </g> <g id="THUNDERBIRD_BG"> </g> <g id="THUNDERBIRD_FARBE_1_"> </g> <g id="THUNDERBIRD"> </g> <g id="MARSHA_BG"> </g> <g id="MARSHA_FARBE"> </g> <g id="MARSHA"> </g> <g id="ARROW_BG"> </g> <g id="ARROW_FARBE"> </g> <g id="ARROW"> </g> <g id="WKTK_BG_1_"> </g> <g id="WKTK_FARBE"> </g> <g id="WKTK"> </g> <g id="psst_BG"> </g> <g id="psst_FARBE"> </g> <g id="psst"> </g> <g id="Ebene_130_Kopie_Kopie_Kopie"> </g> <g id="WIKIPEDIA_FARBE"> </g> <g id="WIKIPEDIA"> </g> <g id="WIKTIONARY_BG"> </g> <g id="WIKTIONARY"> </g> <g id="WIKTIONARY_1_"> </g> <g id="WIKIDATA_BG"> </g> <g id="WIKIDATA_FARBEN"> </g> <g id="WIKIDATA_1_"> </g> <g id="RAVEN_BG"> </g> <g id="RAVEN_FARBE"> </g> <g id="RAVEN"> </g> <g id="OWL_ATHENA_BG"> </g> <g id="OWL_ATHENA_BG_FARBE"> </g> <g id="OWL_ATHENA"> </g> <g id="GHYAMA_BG"> </g> <g id="GHYAMA_FARBE"> </g> <g id="GHYAMA"> </g> <g id="_x32_0_BG"> </g> <g id="_x32_0_FARBE"> </g> <g id="Ebene_170"> </g> <g id="BRAILLE_BG"> </g> <g id="BRAILLE_FARBE"> </g> <g id="BRAILLE"> </g> <g id="EYE_OF_HORUS_BG_1_"> </g> <g id="EYE_OF_HORUS_FARBE"> </g> <g id="EYE_OF_HORUS"> </g> <g id="PARTY_ELEMENT_1"> </g> <g id="PARTY_ELEMENT_FARBEN"> </g> <g id="PARTY_ELEMENT"> </g> <g id="CAKE_BG"> </g> <g id="CAKE_FARBEN"> </g> <g id="CAKE"> </g> <g id="PAPERPLANE_BG"> </g> <g id="PAPERPLANE_FARBE"> </g> <g id="PAPERPLANE"> </g> <g id="INCUBATOR_BG"> </g> <g id="INCUBATOR_FARBEN_1_"> </g> <g id="INCUBATOR_1_"> </g> <g id="_x3D__BG"> </g> <g id="_x3D__FARBE"> </g> <g id="_x3D_"> </g> <g id="COLOR_PALETTE"> </g> <g id="TAGS"> </g> </svg> 