<?xml version="1.0" encoding="UTF-8"?> <!-- Generator: Adobe Illustrator 25.0.0, SVG Export Plug-In . SVG Version: 6.00 Build 0) --> <svg xmlns="http://www.w3.org/2000/svg" xmlns:xlink="http://www.w3.org/1999/xlink" version="1.1" id="Layer_1" x="0px" y="0px" viewBox="0 0 682.3 534.3" style="enable-background:new 0 0 682.3 534.3;" xml:space="preserve"> <style type="text/css"> .st0{fill:#0154D5;} .st1{fill:#DC0C18;} .st2{fill:#E679A6;} .st3{fill:#E9E7C4;} .st4{fill:#F7B821;} </style> <g id="PAP"> <path class="st0" d="M91.5,0C91.5,0,0,0,0,91.3v351.8c0,0,0,91.2,91.5,91.2h499.2c0,0,91.5,0,91.5-91.3V91.3c0,0,0-91.3-91.5-91.3 L91.5,0z"></path> <path class="st1" d="M580.8,262.6c-2.8-47.2-10.3-97.6-42.5-132.3c-10.1-10.9-22.2-19.7-35.7-25.9c-16.2-7.5-34.6-11.1-52-7.2 c-14.9,3.3-28.2,11.8-39.7,21.8c-23.9,20.6-41.3,47.9-54,76.8c-21.7,49.2-30.5,103.1-25.6,156.7l12.4,48.6 c4.9,17.1,18.1,35.6,35.8,44.8s38.2,11.5,58.1,11.7c34.6,0.4,71.2-5.9,97.6-28.3c11.5-9.7,20.6-22.2,27.5-35.6 C583,353.9,583.5,307.2,580.8,262.6z M494.5,318.4c-6.9,13.4-17.2,25.6-31.1,31.2c-12.4,5-28.1,3.5-37.1-6.4 c-3.3-3.6-5.5-8.1-7.4-12.7c-12.7-31.5-8.4-69.4,11-97.2c6.2-8.9,14.1-17,24.2-21c8.2-3.3,18.1-3.3,25.8,0.8 c10.1,1.2,16.6,11.5,20.1,21.2C509.7,261.9,507.7,292.3,494.5,318.4z"></path> <path d="M585.9,261.2c-2-33.1-6-67.1-19.5-97.8c-6.8-15.6-16.4-29.7-28.4-41.7c-13.1-13-29.1-22.6-46.7-28.1 c-9.1-2.8-18.5-4.1-28-3.9c-9.7,0.4-19.1,2.6-28,6.6c-16.3,7.2-30.4,19.5-42.3,32.7c-24.5,27-41.3,60.6-52.4,95.1 c-11.9,37-17.1,75.8-15.4,114.6c0.2,4.8,0.5,9.6,1,14.4c0.1,0.7,0.2,1.3,0.4,2l2.4,9.6l7.3,28.5c2.1,8.3,4.1,16.4,8.2,24.1 c8.1,15.3,20.2,28.1,36,35.6c16.9,8,36,10.2,54.4,10.5c17.1,0.3,34.5-0.9,51.2-4.7c16.5-3.8,32.6-10.2,46.3-20.3 c14.7-10.9,26.3-25.4,34.6-41.6c17.2-33.7,20.9-71.8,20.2-109C586.9,279,586.5,270.1,585.9,261.2c-0.1-2.6-2.4-4.6-5.1-4.4 c-0.3,0-0.5,0.1-0.8,0.1c-3.2,0.9-4.6,4.2-4.4,7.2c1.1,18.1,1.6,34.8,0.6,52.9c-0.5,8.8-1.4,17.6-2.8,26.3 c-0.3,2.1-0.7,4.1-1.1,6.2c-0.2,1-0.4,2-0.6,3.1c-0.1,0.6-0.3,1.2-0.4,1.8c0.2-1-0.2,0.7-0.2,0.9c-1,4.2-2.1,8.5-3.4,12.6 c-5.1,16.3-12.7,32-23.2,44.6c-2.7,3.3-5.7,6.4-8.8,9.3c-2.8,2.6-5.8,5.1-8.9,7.3c-3.3,2.3-6.7,4.4-10.2,6.4 c-1.8,1-3.5,1.9-5.3,2.7c-0.9,0.4-1.7,0.8-2.6,1.2l-1.3,0.6l-1.1,0.5c-15.1,6.2-31.3,9.3-47,10.5c-16.8,1.3-34.8,1.2-51.1-1.9 c-8.8-1.6-17.4-4.4-25.5-8.4l-1.1-0.6c0.8,0.4-0.8-0.5-0.8-0.4c-0.8-0.5-1.6-1-2.4-1.5c-1.7-1.1-3.4-2.3-5-3.5s-2.9-2.4-4.3-3.6 c-1.3-1.2-2.6-2.5-3.8-3.8c-2.6-2.9-5.1-6-7.3-9.3c-1-1.5-2-3.1-2.9-4.7c-1.4-2.4-0.9-1.6-0.4-0.7l-0.5-1c-0.5-1-1-1.9-1.4-2.9 c-0.8-1.7-1.5-3.4-2.2-5.1c-0.3-0.8-0.6-1.6-0.9-2.4c-0.1-0.4-0.3-0.8-0.4-1.2s-0.4-2.1-0.3-1c0,0.7,0.1,0.4,0,0.1 s-0.2-0.7-0.3-1.1L336.8,352c-0.2-1-0.4-2-0.4-3c-0.4-4.6-0.7-9.2-0.9-13.8c-0.4-8.9-0.3-17.5,0.1-26.8s1.3-18.6,2.6-27.8 c0.6-4.6,1.3-9.1,2.2-13.6c0.4-2.3,0.8-4.5,1.3-6.8c0.5-2.5,0.9-4.2,1.3-6.1c4.1-18,9.8-35.5,17-52.5c0.8-2,1.7-3.9,2.6-5.9 c0.5-1,0.9-2,1.4-3c0.2-0.5,0.4-0.9,0.6-1.4c0.1-0.2,0.8-1.7,0.4-0.8c1.9-3.9,3.9-7.8,5.9-11.7c4.1-7.6,8.6-14.9,13.5-22 c2.4-3.5,4.9-6.9,7.5-10.2l0.8-1c-0.7,0.8,0.6-0.7,0.6-0.7c0.6-0.8,1.3-1.6,1.9-2.3c1.4-1.7,2.9-3.4,4.4-5 c5.7-6.3,11.9-12.2,18.5-17.5c1.7-1.4,2.5-2,4.4-3.4c1.7-1.2,3.5-2.5,5.3-3.6c3.7-2.4,7.5-4.4,11.5-6.2c0.3-0.1,1.5-0.6,2.4-1 s1.9-0.7,2.9-1c2.1-0.7,4.3-1.3,6.4-1.8c4.1-1,8.4-1.5,12.6-1.5c17.4-0.3,34.7,5.9,49.1,15c14,8.9,25.9,20.7,34.8,34.7 c4.1,6.3,7.6,13,10.5,20c3.1,7.3,5.7,14.7,7.8,22.3c0.3,1,0.5,2,0.8,3c0.1,0.5,0.2,0.9,0.3,1.4l0.1,0.5c0.5,2,1,4.1,1.4,6.1 c0.9,4,1.7,8,2.4,12.1c1.4,7.9,2.4,16,3.2,24c0.8,7.8,1.4,15.6,1.9,23.4c0.2,2.6,2.5,4.6,5.1,4.4c0.3,0,0.5-0.1,0.8-0.1 C584.7,267.5,586.1,264.2,585.9,261.2z"></path> <path d="M490.4,315.3c-1.4,2.6-2.9,5.2-4.5,7.8c-0.8,1.2-1.6,2.4-2.4,3.5c-0.4,0.5-0.8,1-1.2,1.6c-0.2,0.3-0.4,0.7-0.7,0.9 c0.5-0.7,0.6-0.8,0.2-0.3l-0.5,0.6c-1.9,2.2-3.9,4.3-6,6.3c-1,0.9-2.1,1.7-3.1,2.6c1-1,0.2-0.2-0.1,0l-0.9,0.7 c-0.6,0.4-1.3,0.9-1.9,1.3c-1.2,0.8-2.4,1.5-3.7,2.1c-0.6,0.3-1.3,0.6-1.9,1c-0.3,0.2-0.6,0.3-0.9,0.4c1.4-0.4-0.2,0.1-0.5,0.2 c-2.5,1-5.1,1.7-7.8,2.1c-0.3,0.1-0.6,0.1-0.9,0.1c1.3,0.1,0.3,0-0.1,0c-0.6,0.1-1.2,0.1-1.8,0.1c-1.4,0.1-2.9,0.1-4.3,0 c-1.3,0-2.6-0.1-3.9-0.4c1.3,0.5,0.3,0,0,0l-0.9-0.2c-0.7-0.2-1.5-0.4-2.2-0.6c-1.2-0.4-2.4-0.9-3.6-1.4l-0.8-0.4 c-0.7-0.3,1.1,0.7,0.1,0.1c-0.7-0.4-1.4-0.8-2.1-1.3c-1-0.7-1.9-1.4-2.8-2.2c-0.2-0.2-0.7-0.5-0.8-0.7l0.5,0.5l-0.5-0.5 c-0.6-0.6-1.1-1.3-1.6-2c-1-1.3-1.8-2.6-2.6-4c0.6,1.2,0-0.1-0.1-0.3l-0.6-1.2c-0.4-0.8-0.7-1.6-1.1-2.4c-1.2-2.9-2.3-5.8-3.2-8.7 c-0.4-1.3-0.8-2.7-1.2-4c-0.1-0.3-0.2-0.6-0.2-1c0.3,1.5,0,0.1,0-0.1c-0.2-0.8-0.4-1.5-0.5-2.3c-0.7-3-1.2-6-1.5-9 c-0.4-3-0.6-6.1-0.7-9.1c-0.1-0.7-0.1-1.3,0-2c-0.2,1.5,0,0.3,0-0.1v-1c0-1.5,0-3.1,0.1-4.6c0.1-3,0.4-6.1,0.8-9.1 c0.2-1.5,0.4-2.9,0.7-4.3c0.1-0.6,0.2-1.3,0.4-2c0.1-0.4,0.1-0.8,0.2-1.2c0-0.3,0.1-0.5,0.2-0.8c-0.2,0.9-0.2,1-0.1,0.4 c1.3-5.8,3.2-11.5,5.5-17c0.6-1.3,1.2-2.7,1.8-4s-0.6,1.3,0,0l0.4-0.7c0.4-0.8,0.8-1.7,1.3-2.5c1.4-2.6,2.9-5.1,4.5-7.5 c0.8-1.2,1.6-2.4,2.5-3.6c0.5-0.6,1-1.3,1.4-1.9l0.6-0.8c0.3-0.4,0.2-0.2-0.3,0.4l0.5-0.6c2-2.4,4.1-4.6,6.4-6.7 c0.5-0.4,1-0.9,1.5-1.3l0.9-0.8l0.3-0.2c0.5-0.4,0.4-0.3-0.2,0.1c0.6-0.3,1.1-0.7,1.6-1.2c0.7-0.5,1.4-1,2.2-1.4 c1.2-0.7,2.4-1.4,3.7-2c0.3-0.2,0.7-0.4,1.1-0.5c-1.3,0.4-0.1,0,0.2-0.1c0.8-0.3,1.6-0.6,2.4-0.8c1.5-0.5,3-0.8,4.5-1.1 c0.2,0,1.6-0.3,0.3-0.1c0.3-0.1,0.7-0.1,1-0.1c0.9-0.1,1.8-0.1,2.7-0.1c1.5,0,3,0.1,4.6,0.3c1.3,0.1-0.7-0.2,0.1,0l1,0.2 c0.9,0.2,1.7,0.4,2.6,0.7c1.4,0.5,2.6,1.2,3.9,1.7l1.4,0.2c0.6,0.1,0.5,0.1-0.3-0.1c0.3,0,0.7,0.1,1,0.2c0.7,0.2,1.3,0.4,1.9,0.6 c0.3,0.1,0.6,0.3,0.9,0.4c0.3,0.1,1.1,0.8,0,0c0.4,0.3,1,0.6,1.4,0.9c0.5,0.3,1,0.7,1.5,1.1c0.3,0.2,1.7,1.1,1.7,1.5l-0.5-0.5 l0.5,0.5l0.5,0.5c0.5,0.5,0.9,1.1,1.4,1.7c0.9,1.2,1.7,2.4,2.4,3.6c0.1,0.2,0.2,0.4,0.4,0.6c0.7,1.1-0.5-1.1,0,0.1 c0.3,0.6,0.6,1.2,0.9,1.8c0.6,1.2,1.2,2.5,1.7,3.8c1.1,2.9,2.1,6,2.9,9c0.1,0.4,0.2,0.8,0.3,1.2c-0.3-1.2-0.1-0.4,0-0.2 c0.2,0.8,0.4,1.6,0.6,2.5c0.4,1.7,0.7,3.3,1,5c0.5,3.1,0.9,6.2,1.2,9.3c0.1,1.5,0.2,3.1,0.3,4.7c0,0.4,0,0.9,0,1.3s-0.2,1.6,0,0.2 c-0.1,0.8-0.1,1.7,0,2.5c-0.1,6.4-0.8,12.7-2,19c-0.1,0.8-0.3,1.7-0.5,2.5c0.5-1.5,0.1-0.5,0-0.1s-0.2,0.7-0.2,1 c-0.4,1.6-0.8,3.3-1.3,4.9c-0.9,3.1-2,6.2-3.2,9.2c-0.6,1.4-1.2,2.9-1.8,4.3c-0.2,0.4-1,2.5-0.4,0.9 C491.2,313.8,490.8,314.6,490.4,315.3c-1.3,2.5-1.8,6.3,1,8.1c2.4,1.5,5.6,0.8,7.1-1.6c0.1-0.1,0.1-0.2,0.2-0.3 c13.1-25.7,16.1-55.4,8.3-83.2c-3.3-11.7-9.1-25.5-21.5-30.1c-0.5-0.2-1.1-0.4-1.6-0.5c-1-0.4-2-0.6-3-0.6h0.6 c-0.2-0.1-0.5-0.2-0.7-0.4c-0.2-0.1-0.7-0.3-1.1-0.5c-0.9-0.4-1.8-0.7-2.7-1c-3.4-1-6.9-1.5-10.4-1.4c-7.3,0.2-14.3,2.3-20.5,6.1 c-11.5,7-20.2,18.5-26.4,30.3c-6.3,11.9-10.4,24.8-12.2,38.1c-1.7,12.9-1.2,26,1.7,38.7c1.5,6.7,3.6,13.2,6.4,19.4 c2.9,6.4,7,12.4,13,16.2c10.4,6.7,24.2,7.3,35.6,2.7c12.7-5.1,22.6-14.7,30-26.1c1.6-2.5,3.1-5.1,4.5-7.8c1.3-2.5,1.8-6.3-1-8.1 c-2.4-1.5-5.6-0.8-7.1,1.6C490.5,315.1,490.5,315.2,490.4,315.3z"></path> <path class="st2" d="M126.9,453l283.3,2.9l-77.4-99.4l-59,0c24-43,79.2-171,52.2-219.6c-21.2-38.3-54.4-49.4-90-43.7 s-66,28.8-90.5,55.1l0.7,1l37.5,43.8l7.1-6.1c0,0,12.1-10.1,22.3-14.5s23.1-4.3,31.4,3.1c7.1,6.3,9.5,16.6,8.3,26 c-1.2,9.4-43.2,152.4-125.6,161.2C127.1,362.9,126.9,431.4,126.9,453"></path> <path d="M127.6,458.3l7.6,0.1l20.6,0.2l30.4,0.3l37.2,0.4l40.8,0.4l41.1,0.4l38.4,0.4l32.3,0.3l23.3,0.2c3.7,0,7.4,0.2,11.1,0.1 c0.2,0,0.3,0,0.5,0c4,0,5-5.6,3-8.2l-15.6-20.1l-32-41.1l-25.9-33.3l-3-3.8c-1.4-1.8-2.7-3.5-5.2-3.6c-4.5-0.2-9,0-13.5,0 l-44.5,0.1h-1l4.5,9c11.9-21.2,21.8-43.6,30.7-66.2c11.1-28,20.7-56.9,26.1-86.5c2.6-13.2,3.8-26.7,3.4-40.2 c-0.4-11.2-2.5-22.5-7.8-32.5c-8-15.3-20.1-28.9-35.1-37.6c-13.5-7.8-29.1-11.2-44.6-10.8c-38.1,0.8-71.8,21.9-98.4,47.7 c-3.6,3.4-7,7-10.4,10.6c-1.6,1.7-0.9,4.9,0.2,6.6c2.4,3.7,5.7,7,8.6,10.3l10.1,11.8l20.4,23.8c1.5,1.6,4,1.8,5.9,0.5 c6.7-5.7,13.4-11.4,20.9-16c6.1-3.8,13-6.6,20.4-6.6c3.4,0,6.8,0.7,9.9,2.1c0.8,0.4,1.5,0.9,2.3,1.3c1.4,0.8-0.6-0.6,0.6,0.4 c0.3,0.2,0.5,0.5,0.8,0.7c0.3,0.2,0.8,0.7,1.2,1.1c0,0,1.2,1.4,0.5,0.6c0.7,0.8,1.3,1.7,1.8,2.6c0.2,0.3,0.4,0.6,0.5,0.9 c-0.6-1,0.2,0.5,0.3,0.6c0.4,0.8,0.7,1.7,1,2.5c0.6,1.6,0.9,3.3,1.1,5c0.1,1,0.2,2,0.2,3s0.1-1.2,0,0.5c0,0.5,0,1.1-0.1,1.6 c-0.1,0.8-0.1,1.7-0.3,2.5c-0.1,0.7-0.7,2.6,0,0.4c-0.2,0.7-0.4,1.5-0.6,2.2c-1.4,5.3-3,10.5-4.8,15.6c-5.9,17.4-13,34.4-21.3,50.8 c-0.3,0.6-0.6,1.1-0.9,1.7c-0.6,1.1,0.5-0.9-0.1,0.2c-0.2,0.3-0.3,0.7-0.5,1c-0.6,1.2-1.3,2.5-1.9,3.7c-1.3,2.4-2.6,4.8-4,7.2 c-2.8,4.9-5.7,9.7-8.8,14.4c-6.1,9.4-12.9,18.2-20.5,26.5l-0.6,0.7c0.8-0.9-0.1,0.1-0.2,0.2l-1.3,1.4c-1,1-2,2-3,3 c-2,1.9-4,3.8-6.1,5.6c-4,3.5-8.2,6.6-12.6,9.5c-1.1,0.7-2.1,1.4-3.2,2l-1.7,1c-0.2,0.1-0.8,0.5,0.2-0.1c-0.4,0.2-0.8,0.5-1.3,0.7 c-2.2,1.2-4.5,2.3-6.8,3.3c-4.8,2.1-9.8,3.7-14.9,4.8l-0.7,0.1c1.3-0.3,0.1,0-0.2,0l-1.8,0.3c-1.3,0.2-2.6,0.4-4,0.5 c-2.2,0.2-3.9,2-4.1,4.2l-0.1,24.5c-0.1,15.3-0.1,30.5-0.1,45.8c0,6.6,0,13.2,0,19.9c0,2.8,1.2,5.8,4.2,6.5c2.4,0.5,4.7-1,5.2-3.4 c0.1-0.2,0.1-0.5,0.1-0.7c0-13.3,0-26.7,0.1-40c0-13.8,0.1-27.6,0.1-41.5v-8.7l-4,4.3c22.5-2.5,42.3-14.5,58.2-30.1 c16.7-16.4,29.7-36,40.6-56.6c9.3-17.6,17.3-35.9,23.8-54.8c2-5.7,3.8-11.4,5.4-17.2c0.5-1.9,1-3.9,1.4-5.9 c1-5.8,0.6-11.8-1.1-17.4c-2.4-8.6-8.4-16.2-16.8-19.6c-8.3-3.4-17.5-3.1-25.8-0.3c-7.4,2.5-14.2,7.2-20.5,11.8 c-2.9,2.1-5.6,4.4-8.3,6.7l-4.2,3.6l5.9,0.5L166.6,166l-9.8-11.5l-4.9-5.8c-0.8-0.9-1.6-1.8-2.3-2.7c0.8,1.1,0-0.2-0.2-0.5l0.1,6.6 c24.3-26,55.5-49.6,91.7-54c3.7-0.5,7.4-0.7,11.1-0.8c1.9,0,3.8,0,5.7,0.1c0.8,0,1.6,0.1,2.4,0.1l1.4,0.1l0.9,0.1 c-0.5-0.1-0.4,0,0.1,0c3.5,0.4,7.1,1,10.5,1.9c1.8,0.4,3.6,0.9,5.3,1.5c0.7,0.2,1.5,0.5,2.2,0.8l1.3,0.5l0.9,0.3 c-0.5-0.2-0.4-0.2,0.1,0.1c3.3,1.4,6.5,3,9.6,4.9c1.6,1,3.2,2.1,4.8,3.2c1.3,0.9-0.8-0.6,0.5,0.4l0.8,0.6c0.9,0.7,1.8,1.4,2.7,2.2 c3.1,2.6,5.9,5.4,8.6,8.4c1.3,1.4,1.9,2.2,3.4,4.1c1.5,1.9,2.7,3.6,3.9,5.5s2.3,3.6,3.4,5.4c0.6,1,1.1,1.9,1.6,2.9 c0.1,0.3,0.2,0.5,0.4,0.8l-0.3-0.5c0.1,0.2,0.2,0.4,0.2,0.5c1,2.1,1.8,4.3,2.5,6.5c0.4,1.1,0.6,2.2,1,3.3c0.4,1.1-0.3-1.3,0-0.2 c0.1,0.3,0.1,0.6,0.2,1c0.2,0.8,0.3,1.5,0.5,2.3c0.5,2.6,0.8,5.2,1.1,7.8c0.3,2.9,0.4,5.8,0.5,8.7c0-1.6,0,0.5,0,0.9 c0,0.8,0,1.5,0,2.3c0,1.5-0.1,3.1-0.2,4.7c-0.3,6.5-1,12.9-2,19.3c-2.2,13.8-5.3,27.4-9.4,40.7c-4.1,14.3-9,28.5-14.3,42.4 c-4.9,12.8-10.1,25.5-15.8,38c-2.5,5.4-5,10.8-7.6,16.2c-1.1,2.3-2.3,4.7-3.5,7c-0.3,0.6-0.6,1.1-0.9,1.7l-0.4,0.9 c-0.5,1,0.5-1,0,0s-1.1,2.1-1.7,3.2c-1,1.9-2,3.7-3,5.5c-2,3.6,0,9,4.5,9l51.7,0h7.3l-4.4-2.4l7.7,9.8l18.5,23.8l22.3,28.7 l19.3,24.8c3.1,4,6.1,8.3,9.4,12.1c0,0.1,0.1,0.1,0.1,0.2l3-8.2l-7.6-0.1l-20.6-0.2l-30.4-0.3l-37.2-0.4l-40.8-0.4l-41.1-0.4 l-38.4-0.4l-32.3-0.3l-23.3-0.2c-3.7,0-7.4-0.2-11.1-0.1h-0.5c-2.8,0-4.3,3.1-4,5.5C122.5,456,124.7,458.2,127.6,458.3L127.6,458.3 z"></path> <path class="st3" d="M137.2,48.1c-10.9-13.3-33.1-12.2-46.2-2.6S75.1,77.6,92.1,85c15.4,6.7,29.4-13.5,16.8-25.1 c-12.2-11.3-33.6-6-45.1,3.7c-15.4,13-19,36.3-9.9,54c1.7,3.3,6,0.5,4.8-2.7c-5.7-15.1-4.5-32.8,8-44.3c5.7-5.3,12.9-8.6,20.6-9.5 c6-0.6,17.4,0,19.9,7c3,8.4-8.5,13.3-14.7,9.7c-8.4-4.8-7.2-15.6-2-22.2c9-11.4,32.5-14.8,42.6-3.2 C135.7,55.4,139.4,50.9,137.2,48.1L137.2,48.1z"></path> <path class="st4" d="M665.2,447.1c-10.9-13.3-33.1-12.2-46.2-2.6s-15.9,32.2,1.1,39.5c15.4,6.7,29.4-13.5,16.8-25.1 c-12.2-11.3-33.6-6-45.1,3.6c-15.5,13-19,36.3-9.9,54c1.7,3.3,6,0.5,4.8-2.7c-5.7-15.1-4.5-32.8,8-44.3c5.7-5.3,12.9-8.6,20.6-9.5 c6-0.6,17.4,0,19.9,7c3,8.4-8.5,13.3-14.7,9.7c-8.4-4.8-7.2-15.6-2-22.2c9-11.4,32.5-14.8,42.6-3.2 C663.7,454.3,667.4,449.9,665.2,447.1L665.2,447.1z"></path> <path class="st4" d="M340,80.1c8.6,14.7,31.5,16.7,45.5,9.2c14.2-7.6,20-28.9,4.7-38.8c-14.4-9.4-31.6,9-20.2,22.4 c10.9,12.8,32.3,10.7,45.2,2.8C432,65.3,439.1,43,433,24.5c-1.1-3.3-6.2-2.6-5.4,1.1c3.1,15.1,0,31.6-12.8,41.5 c-6.1,4.7-13.6,7.4-21.4,7.6c-6.4,0.2-16.3-1.4-19.9-7.6c-2.3-4-0.2-8.2,3.3-10.6c3.5-2.4,8.2-2.1,11.5,0.5 c7.7,5.8,5,16.5-1.1,22.3c-10.5,9.8-34.4,10.2-42.6-2.9C342.2,72.7,338,76.6,340,80.1L340,80.1z"></path> <path class="st3" d="M95.2,329.4c12.7,3.2,26.7-8.2,30.5-19.9c3.7-11.3-3.8-25.8-17.2-22.6c-10.8,2.6-14.3,19.9-2.3,23.4 c12.8,3.8,25.6-10.4,29.2-21.2c4.5-13.6-1.1-30.2-14.2-36.8c-3.3-1.6-5.4,3.3-2.7,5.2c8.1,5.9,13.8,14.5,11.9,24.9 c-1.7,9.4-10.3,20.7-20.6,21.2c-7.7,0.4-4.7-8.5,0.6-9.9c6.4-1.7,10.6,3.7,10,9.6c-1,10.2-14.2,21.5-24.5,19.4 C91.8,322.1,91.7,328.5,95.2,329.4L95.2,329.4z"></path> <rect x="268.7" y="241.2" transform="matrix(0.1595 -0.9872 0.9872 0.1595 -21.0416 483.9997)" class="st3" width="10" height="26.4"></rect> <rect x="177.6" y="133.4" transform="matrix(0.1563 -0.9877 0.9877 0.1563 11.1492 302.3778)" class="st0" width="10" height="22.6"></rect> <rect x="374.7" y="341.9" transform="matrix(0.6191 -0.7853 0.7853 0.6191 -134.172 433.3932)" class="st3" width="10" height="26.3"></rect> <polygon class="st0" points="229.6,350.6 224.2,347.3 221.8,342.7 218.1,339.6 215.7,334.8 213.1,331.6 221,325.4 224.2,329.5 226.1,333.3 229.7,336.3 231.8,340.2 234.8,342 "></polygon> <polygon class="st3" points="161.4,429.1 159.1,424.5 156.1,418.2 158.4,411 159.6,409.3 155.5,405.4 158.9,397.7 168.1,401.6 167.5,403 172.8,408.2 167.4,415.6 166.8,417.5 168.1,420.2 170.3,424.7 "></polygon> <polyline points="70.3,181 72.6,185.5 71.7,190.1 72.4,194.6 71,199.2 71.3,203.7 72.3,208.2 "></polyline> <polygon class="st4" points="67.8,211 63.1,203.6 67.8,196.8 68.6,195 66.7,191.7 65.9,185.2 67.5,179.6 77.1,182.4 76.1,185.9 76.4,188.5 79.7,194.3 76.7,201.6 75.1,203.8 76.2,205.5 "></polygon> <polygon class="st3" points="624,100.3 619.7,93 622.4,89.1 619.4,85.7 620.5,78.1 622.6,73.8 622.6,70.5 632.6,70.5 632.6,76.2 630.2,81.1 630,82.5 635.1,88.3 631.5,93.4 632.6,95.2 "></polygon> <polygon class="st4" points="549.5,251 546.5,247 539.9,240.1 535.3,237.3 531.2,233.3 538.1,226.1 541.5,229.4 546.3,232.3 554.2,240.8 557.4,244.9 "></polygon> <polygon class="st0" points="276.3,196.3 274.4,186.5 279.2,185.6 281.9,185.2 284,182.2 288.8,178.7 292.8,176.5 297.6,185.3 293.9,187.3 291.2,189.3 287.5,194.5 280.8,195.5 "></polygon> <polyline points="449.5,495.6 445.9,498.5 441.8,500.3 437,500.8 432.4,501.7 429.2,505.2 "></polyline> <polygon class="st4" points="429.5,510.2 429,500.2 431.2,500.1 433.6,496.1 439.8,494.5 442.9,493.4 445.5,491 452.4,498.2 448.2,502.2 442.5,504.1 440.1,504.8 437.1,509.8 "></polygon> <rect x="417.6" y="404.1" transform="matrix(0.4555 -0.8902 0.8902 0.4555 -130.6758 604.4955)" class="st3" width="22.6" height="10"></rect> <polygon class="st3" points="489.8,175.4 484.9,166.7 488.4,164.7 490.7,160.5 495.7,156 500,153.6 502.7,150.2 510.5,156.4 506.7,161.3 501.5,164.2 498.7,166.7 495.8,172 "></polygon> <polygon class="st0" points="290.4,439.6 282.6,437.3 285.5,427.7 287.5,428.3 292.2,423.7 299.6,426.5 302.1,426.9 306.8,423.9 313.7,425.4 311.5,435.2 308.7,434.5 304.2,437.4 297,436.2 294.7,435.3 "></polygon> <polygon class="st3" points="424.1,206.9 423.6,203.1 421.3,201 417,197.4 413.1,191.7 412.5,184.7 422.5,183.9 422.9,188.2 424.5,190.6 428.1,193.7 433,198.4 434,205.6 "></polygon> <polygon class="st3" points="282.2,513.1 275.9,509.6 273,502.8 272.3,498.3 270.5,496.2 266.6,493.8 271.9,485.3 277.1,488.5 281.8,493.9 282.7,500.1 283.7,502.6 287,504.4 "></polygon> <polygon class="st3" points="43,358.1 39.1,354 36.1,348.8 34.5,344.4 32,341 29,337.2 36.9,331.1 39.9,335 43.4,339.6 45.2,344.6 47.1,348 50.2,351.1 "></polygon> <polygon class="st4" points="633,232 630.8,227.9 628.3,224.4 624.7,220.5 622.3,216 619.5,212.6 627.2,206.2 630.7,210.4 632.9,214.6 636.1,218 639.4,222.9 641.8,227.2 "></polygon> <polyline points="389.5,259.3 385,262.8 383.1,267.2 383.8,272.5 382.6,277.1 378.3,280.7 378,285.6 "></polyline> <polygon class="st4" points="386.5,286.8 376.5,286.7 376.6,280.8 378.5,276 379.3,270.8 381.6,267.1 381.5,263.1 382,257.9 392,259 391.5,263.5 391.7,269.7 388.9,274.3 388.2,278.7 386.6,282.8 "></polygon> <polygon class="st3" points="250,145.5 248.2,139.8 248.9,136.2 245.4,134.2 242.6,127.2 242.8,123.3 240.6,121.5 246.9,113.7 252.9,118.6 252.7,125.5 253.4,127.3 259.9,131.1 258.5,139.2 259.5,142.7 "></polygon> <polygon class="st3" points="534.8,349.9 531.6,345.6 529.6,341.2 526.4,336.7 525.3,330.7 524.7,327.3 522.3,324.8 529.5,317.9 534.1,322.6 535.2,329 535.9,332.7 538.2,336.2 540.2,340.4 542.8,343.9 "></polygon> <polyline points="510.5,26.3 513.8,30 516.1,34.2 515.8,39.6 519.4,43.2 521,47.7 521.6,52.7 "></polyline> <polygon class="st4" points="525.7,53.3 515.7,53 515.8,50 511.3,46.2 512.3,41.7 506.8,39.9 506.7,30.8 507.1,25.1 517.1,25.9 516.7,31.2 516.7,32.7 524.1,35.1 522.4,42.5 526,45.5 "></polygon> <polygon class="st4" points="491.9,420.9 484.3,414.4 488.4,409.6 494.7,405.3 500.3,405.6 502.6,403.6 506.1,399.6 513.6,406.2 509.5,410.7 504,415.8 497.5,415.5 495.1,417.1 "></polygon> <polygon class="st4" points="451.5,138.4 443.2,132.9 447.1,127 452.4,125.7 456.6,122.4 462.5,122.6 465.5,121.3 469.5,130.5 464.4,132.7 459.9,132.6 456.9,134.9 453.3,135.8 "></polygon> <polygon class="st3" points="239.9,408.8 238.8,398.8 242.6,398.4 246,396.5 254.5,393.6 257.8,391.5 263.1,400 258.8,402.7 250.1,405.6 245.8,408.1 "></polygon> <polygon class="st3" points="635.8,366.7 628.2,365.5 629.8,355.6 633.2,356.2 634.5,355.2 638,349.9 644.4,348.8 648.2,347.5 651.6,356.9 646.9,358.6 644,359 641.9,362.2 "></polygon> <polyline points="71.3,463.2 68.8,466.9 68,471.5 64.1,474.6 63.9,479.5 61,483.1 "></polyline> <polygon class="st4" points="65.7,483.7 55.8,482.3 56.6,477 58.8,471.8 61.1,468.4 62.6,462.6 69.7,459 74.2,467.9 71.1,469.5 70.3,472.5 67.6,476.6 66.3,479.7 "></polygon> <polygon class="st3" points="272.2,47.5 262.4,45.4 263.5,40.6 266.1,31.8 267.7,26.8 270.7,22.4 278.9,28.1 276.8,31.2 275.6,34.8 273.1,43.2 "></polygon> </g> </svg> 