<?xml version="1.0" encoding="UTF-8"?> <!-- Generator: Adobe Illustrator 25.0.0, SVG Export Plug-In . SVG Version: 6.00 Build 0) --> <svg xmlns="http://www.w3.org/2000/svg" xmlns:xlink="http://www.w3.org/1999/xlink" version="1.1" id="Layer_1" x="0px" y="0px" viewBox="0 0 681.6 533.7" style="enable-background:new 0 0 681.6 533.7;" xml:space="preserve"> <style type="text/css"> .st0{fill:#028B3F;} .st1{fill:none;stroke:#F0BC00;stroke-width:6;stroke-miterlimit:10;} .st2{stroke:#EE8019;stroke-width:16;stroke-miterlimit:10;} .st3{fill:none;stroke:#000000;stroke-width:29.03;stroke-miterlimit:10;} .st4{fill:#049DFF;} </style> <g id="Layer_1_1_"> <path class="st0" d="M91.4,0C91.4,0,0,0,0,91.2v351.4c0,0,0,91.2,91.4,91.2h498.7c0,0,91.5,0,91.5-91.2V91.2c0,0,0-91.2-91.5-91.2 H91.4z"></path> <path class="st1" d="M37.3,488.2c11.4,5.5,24.2,8.9,36.8,7.1s24.6-9.6,29.2-21.5c1.3-3.2,1.7-7.5-1-9.7c-2.2-1.9-5.9-1.3-8.1,0.7 s-3.2,4.9-3.7,7.8c-3.1,17.1,8.3,33.4,25.3,36.5c9.8,1.8,19.8-1.2,27.1-8"></path> <path class="st1" d="M230.8,45.2c-10.2,2-12.6-9.7-22.8-7.7s-7.9,13.8-18.1,15.9s-12.6-9.7-22.8-7.7s-7.9,13.8-18.1,15.8 s-12.6-9.7-22.8-7.7s-7.9,13.8-18.1,15.8S95.3,59.9,85.1,62s-7.9,13.8-18.1,15.8"></path> <path class="st1" d="M643.3,454c-9.8,3.5-13.8-7.9-23.7-4.4s-5.8,14.8-15.7,18.3s-13.8-7.8-23.7-4.4s-5.8,14.8-15.7,18.3 s-13.8-7.9-23.7-4.4s-5.8,14.8-15.7,18.3s-13.8-7.8-23.7-4.4c-9.8,3.5-5.8,14.8-15.7,18.3"></path> <path class="st1" d="M341.2,46.6c-19.7,9.7-34.1,27.7-39.3,49c-2.4,9.9-2.6,20.6,0.9,30.2s11,18,20.7,21.1s21.5,0.3,27.6-7.8 c3.2-4.2,3.9-11.8-1-13.8c-3.7-1.5-7.9,1.6-9.6,5.2c-3.6,7.6-0.2,17.1,6.1,22.6c6.3,5.5,14.9,7.6,23.2,8.5"></path> <path class="st1" d="M621.3,150.2c3.9-17.8,4.5-36.2,1.8-54.3c-2.5-16.7-8.9-34.4-23.3-43.2c-4.3-2.7-9.4-4.4-14.4-3.6 s-9.7,4.6-10.4,9.6s3.9,10.4,8.9,9.6c6.6-1,8.2-10.1,6.1-16.4c-5.9-17.3-26.7-25.8-44.9-23.7"></path> <polygon class="st2" points="555.8,172.9 566.3,101.7 406.1,78.1 395.6,149.3 442.8,156.2 414.8,305 360.7,224.9 320.4,225.1 265.4,308.3 230.9,170.1 270,161 253.6,90.8 104,125.9 120.4,196 160.7,186.5 211.1,388 181.6,387.8 181,459.8 313,460.9 313.6,388.9 298.5,388.7 341,324.4 388.3,394.4 370,397.3 381.4,468.4 510.1,447.8 498.8,376.7 473.9,380.7 514,166.8 "></polygon> <line class="st3" x1="538.8" y1="239.6" x2="613.3" y2="218"></line> <line class="st3" x1="546.5" y1="298" x2="609" y2="300.1"></line> <line class="st3" x1="534.4" y1="349.8" x2="590.5" y2="389"></line> <line class="st3" x1="132.6" y1="279.8" x2="61.4" y2="249.4"></line> <line class="st3" x1="123.2" y1="327.1" x2="57" y2="331.5"></line> <line class="st3" x1="143.4" y1="380.4" x2="72.2" y2="424.3"></line> <path class="st4" d="M210.5,238.8c2.1,6.4,4.1,12.8,6.2,19.2l6,19.3c4,12.9,7.8,25.8,11.7,38.6s7.6,25.8,11.3,38.7l5.6,19.4 l5.5,19.4l-6.1-4.8h1.8l-5.2,2.7l10.7-15.8l10.8-15.8c7.2-10.5,14.4-21,21.7-31.5l21.8-31.4l22-31.3l2.3-3.3l4.1-0.1h1.3l4.3-0.1 l2.5,3.5l21.7,31.3l21.5,31.4c7.1,10.5,14.3,21,21.3,31.5s14.1,21.1,21.1,31.6l-5.3-2.8h1.9l-6.2,5c3.2-13.2,6.6-26.4,9.9-39.6 l5-19.7l5.2-19.8c3.5-13.1,7-26.3,10.6-39.5l5.5-19.7c1.9-6.5,3.7-13.1,5.7-19.6c-1,6.7-2.2,13.5-3.2,20.2l-3.5,20.1 c-2.3,13.4-4.8,26.8-7.2,40.2l-3.8,20.1l-3.9,20c-2.6,13.4-5.2,26.7-7.9,40l-1,4.9l-5.2,0.1H429l-3.2,0.1l-2.1-2.8 c-7.5-10.2-14.9-20.5-22.3-30.8s-14.7-20.6-22.1-30.9l-22-31.1l-21.8-31.2l6.7,3.4h-1.3l6.4-3.4L325.2,306l-22.3,31 c-7.5,10.3-14.9,20.7-22.5,30.9l-11.3,15.4l-11.4,15.4l-2,2.8l-3.1-0.1h-1.8l-5-0.1l-1.1-4.6L240,377l-4.5-19.7 c-3-13.1-5.9-26.3-8.8-39.4c-2.8-13.2-5.7-26.3-8.4-39.5l-4-19.8C213.1,252.1,211.7,245.5,210.5,238.8z"></path> </g> </svg> 